<?xml version="1.0" encoding="utf-8"?>
<!-- Generator: Adobe Illustrator 25.2.1, SVG Export Plug-In . SVG Version: 6.00 Build 0)  -->
<svg version="1.1" id="Layer_1" xmlns="http://www.w3.org/2000/svg" xmlns:xlink="http://www.w3.org/1999/xlink" x="0px" y="0px"
	 viewBox="0 0 72 72" style="enable-background:new 0 0 72 72;" xml:space="preserve">
<style type="text/css">
	.st0{fill:#1A7F9E;}
	.st1{fill:#FFFFFF;}
	.st2{font-family:'SFProDisplay-Bold';}
	.st3{font-size:8.3483px;}
</style>
<circle class="st0" cx="35.75" cy="35.79" r="35.21"/>
<g id="z9hXN6_2_">
	<g>
		<g>
			<path class="st1" d="M51.38,34.24c0,2.54,0.01,5.07,0,7.61c-0.01,1.87-0.56,2.46-2.37,2.48c-2.43,0.03-4.86,0.03-7.29,0
				c-1.8-0.02-2.26-0.53-2.28-2.36c-0.01-1.4,0.03-2.81-0.01-4.21c-0.06-2.09-1.61-3.64-3.57-3.65c-1.96-0.01-3.53,1.55-3.59,3.63
				c-0.04,1.51-0.03,3.02-0.01,4.53c0.02,1.34-0.64,2.03-1.95,2.05c-2.64,0.03-5.29,0.02-7.94,0.01c-1.3-0.01-2.02-0.66-2.03-1.99
				c-0.01-5.34-0.04-10.69,0.04-16.03c0.01-0.65,0.47-1.45,0.97-1.9c4.26-3.82,8.59-7.56,12.87-11.36c1.07-0.95,1.99-1.03,3.11-0.04
				c4.34,3.82,8.74,7.56,13.04,11.4c0.55,0.49,0.92,1.46,0.96,2.22C51.45,29.17,51.38,31.71,51.38,34.24z"/>
		</g>
	</g>
</g>
<text transform="matrix(1 0 0 1 23.8154 56.3779)" class="st1 st2 st3">HOME</text>
</svg>
