<?xml version="1.0" encoding="utf-8"?>
<!-- Generator: Adobe Illustrator 25.2.1, SVG Export Plug-In . SVG Version: 6.00 Build 0)  -->
<svg version="1.1" id="Layer_1" xmlns="http://www.w3.org/2000/svg" xmlns:xlink="http://www.w3.org/1999/xlink" x="0px" y="0px"
	 viewBox="0 0 131 64" style="enable-background:new 0 0 131 64;" xml:space="preserve">
<style type="text/css">
	.st0{fill:#687A9B;}
</style>
<path class="st0" d="M4.17,13.66h118.66c2.36,0,4.3-1.93,4.3-4.3v-0.7c0-2.36-1.93-4.3-4.3-4.3H4.17c-2.36,0-4.3,1.93-4.3,4.3v0.7
	C-0.13,11.73,1.81,13.66,4.17,13.66z"/>
<path class="st0" d="M34.17,36.65h88.66c2.36,0,4.3-1.93,4.3-4.3v-0.7c0-2.36-1.93-4.3-4.3-4.3H34.17c-2.36,0-4.3,1.93-4.3,4.3v0.7
	C29.87,34.71,31.81,36.65,34.17,36.65z"/>
<path class="st0" d="M12.17,59.63h110.66c2.36,0,4.3-1.93,4.3-4.3v-0.7c0-2.36-1.93-4.3-4.3-4.3H12.17c-2.36,0-4.3,1.93-4.3,4.3v0.7
	C7.87,57.69,9.81,59.63,12.17,59.63z"/>
</svg>
