<?xml version="1.0" encoding="utf-8"?>
<!-- Generator: Adobe Illustrator 25.2.1, SVG Export Plug-In . SVG Version: 6.00 Build 0)  -->
<svg version="1.1" id="Layer_1" xmlns="http://www.w3.org/2000/svg" xmlns:xlink="http://www.w3.org/1999/xlink" x="0px" y="0px"
	 viewBox="0 0 100 100" style="enable-background:new 0 0 100 100;" xml:space="preserve">
<style type="text/css">
	.st0{fill:#E7EAED;}
	.st1{fill:#FFCD3C;}
	.st2{fill:#B6C4D2;}
	.st3{fill:#D82128;}
</style>
<g>
	<g>
		<g>
			<g>
				<g>
					<g>
						<g>
							<g>
								<path class="st0" d="M73.61,23.88v66.11c0,4.9-3.97,8.85-8.85,8.85h-47.9c-4.9,0-8.85-3.97-8.85-8.85V23.88
									c0-4.9,3.97-8.85,8.85-8.85h9.33v3.81c0,1.58,1.27,2.85,2.83,2.85h26.27c1.58,0,2.85-1.27,2.85-2.85v-3.81h6.62
									C69.63,15.02,73.61,18.98,73.61,23.88z"/>
							</g>
						</g>
					</g>
				</g>
			</g>
		</g>
	</g>
	<g>
		<g>
			<g>
				<g>
					<g>
						<g>
							<g>
								<g>
									<rect x="82.17" y="39.1" class="st1" width="11.83" height="37.85"/>
								</g>
							</g>
						</g>
					</g>
				</g>
			</g>
		</g>
		<g>
			<g>
				<g>
					<g>
						<g>
							<g>
								<g>
									<path class="st2" d="M94,39.1H82.17v-3.16c0-3.27,2.65-5.91,5.91-5.91l0,0c3.27,0,5.91,2.65,5.91,5.91
										C94,35.94,94,39.1,94,39.1z"/>
								</g>
							</g>
						</g>
					</g>
				</g>
			</g>
		</g>
		<g>
			<g>
				<g>
					<g>
						<g>
							<g>
								<g>
									<polygon class="st3" points="88.09,86.87 94,76.94 82.17,76.94 88.09,86.87 94,76.94 82.17,76.94 									"/>
								</g>
							</g>
						</g>
					</g>
				</g>
			</g>
		</g>
	</g>
	<g>
		<g>
			<g>
				<path class="st2" d="M55.28,8.36H52.4c-0.07-1.71-0.78-3.21-1.91-4.35c-1.2-1.18-2.83-1.92-4.64-1.92h-7.4
					c-3.54,0-6.4,2.78-6.55,6.26h-2.88c-1.56,0-2.83,1.27-2.83,2.83v7.64c0,1.58,1.27,2.85,2.83,2.85h26.27
					c1.58,0,2.85-1.27,2.85-2.85v-7.62C58.13,9.61,56.86,8.36,55.28,8.36z M42.15,12.95c-1.63,0-2.94-1.32-2.94-2.94
					s1.32-2.94,2.94-2.94c1.63,0,2.94,1.32,2.94,2.94S43.78,12.95,42.15,12.95z"/>
			</g>
		</g>
	</g>
	<g>
		<g>
			<g>
				<g>
					<g>
						<g>
							<g>
								<g>
									<path class="st2" d="M37.9,35.96h22.57c0.78,0,1.42-0.64,1.42-1.42s-0.64-1.42-1.42-1.42H37.9c-0.78,0-1.42,0.64-1.42,1.42
										S37.12,35.96,37.9,35.96z"/>
								</g>
							</g>
						</g>
					</g>
				</g>
			</g>
		</g>
		<g>
			<g>
				<g>
					<g>
						<g>
							<g>
								<g>
									<path class="st2" d="M60.47,45.12H37.9c-0.78,0-1.42,0.64-1.42,1.42s0.64,1.42,1.42,1.42h22.57c0.78,0,1.42-0.64,1.42-1.42
										C61.89,45.76,61.25,45.12,60.47,45.12z"/>
								</g>
							</g>
						</g>
					</g>
				</g>
			</g>
		</g>
		<g>
			<g>
				<g>
					<g>
						<g>
							<g>
								<g>
									<path class="st2" d="M60.47,57.1H37.9c-0.78,0-1.42,0.64-1.42,1.42c0,0.78,0.64,1.42,1.42,1.42h22.57
										c0.78,0,1.42-0.64,1.42-1.42C61.89,57.73,61.25,57.1,60.47,57.1z"/>
								</g>
							</g>
						</g>
					</g>
				</g>
			</g>
		</g>
		<g>
			<g>
				<g>
					<g>
						<g>
							<g>
								<g>
									<path class="st2" d="M60.47,69.09H37.9c-0.78,0-1.42,0.64-1.42,1.42c0,0.78,0.64,1.42,1.42,1.42h22.57
										c0.78,0,1.42-0.64,1.42-1.42C61.89,69.72,61.25,69.09,60.47,69.09z"/>
								</g>
							</g>
						</g>
					</g>
				</g>
			</g>
		</g>
		<g>
			<g>
				<g>
					<g>
						<g>
							<g>
								<g>
									<path class="st2" d="M27.72,69.09h-6.89c-0.78,0-1.42,0.64-1.42,1.42c0,0.78,0.64,1.42,1.42,1.42h6.89
										c0.78,0,1.42-0.64,1.42-1.42C29.14,69.72,28.5,69.09,27.72,69.09z"/>
								</g>
							</g>
						</g>
					</g>
				</g>
			</g>
		</g>
		<g>
			<g>
				<g>
					<g>
						<g>
							<g>
								<g>
									<path class="st2" d="M27.72,81.08h-6.89c-0.78,0-1.42,0.64-1.42,1.42c0,0.78,0.62,1.42,1.4,1.42h6.89
										c0.78,0,1.42-0.64,1.42-1.42C29.12,81.72,28.5,81.08,27.72,81.08z"/>
								</g>
							</g>
						</g>
					</g>
				</g>
			</g>
		</g>
		<g>
			<g>
				<g>
					<g>
						<g>
							<g>
								<g>
									<path class="st2" d="M60.47,81.08H37.9c-0.78,0-1.42,0.64-1.42,1.42c0,0.78,0.64,1.42,1.42,1.42h22.57
										c0.78,0,1.42-0.64,1.42-1.42C61.89,81.72,61.25,81.08,60.47,81.08z"/>
								</g>
							</g>
						</g>
					</g>
				</g>
			</g>
		</g>
		<g>
			<g>
				<g>
					<g>
						<g>
							<g>
								<g>
									<path class="st2" d="M28.01,30.37l-5.33,5.33l-2.18-2.18c-0.56-0.56-1.45-0.56-2.01,0c-0.56,0.56-0.56,1.45,0,2.01
										l3.18,3.18c0.27,0.27,0.64,0.42,1,0.42c0.36,0,0.73-0.15,1-0.42l6.35-6.35c0.56-0.56,0.56-1.45,0-2.01
										C29.48,29.81,28.57,29.81,28.01,30.37z"/>
								</g>
							</g>
						</g>
					</g>
				</g>
			</g>
		</g>
		<g>
			<g>
				<g>
					<g>
						<g>
							<g>
								<g>
									<path class="st2" d="M28.01,42.36l-5.33,5.33l-2.18-2.18c-0.56-0.56-1.45-0.56-2.01,0c-0.56,0.56-0.56,1.45,0,2.01
										l3.18,3.18c0.27,0.27,0.64,0.42,1,0.42c0.38,0,0.74-0.15,1-0.42l6.35-6.35c0.56-0.56,0.56-1.45,0-2.01
										C29.48,41.8,28.57,41.8,28.01,42.36z"/>
								</g>
							</g>
						</g>
					</g>
				</g>
			</g>
		</g>
		<g>
			<g>
				<g>
					<g>
						<g>
							<g>
								<g>
									<path class="st2" d="M28.01,54.34l-5.33,5.33l-2.18-2.18c-0.56-0.56-1.45-0.56-2.01,0c-0.56,0.56-0.56,1.45,0,2.01
										l3.18,3.18c0.27,0.27,0.64,0.42,1,0.42c0.36,0,0.73-0.15,1-0.42l6.35-6.35c0.56-0.56,0.56-1.45,0-2.01
										C29.48,53.79,28.57,53.79,28.01,54.34z"/>
								</g>
							</g>
						</g>
					</g>
				</g>
			</g>
		</g>
	</g>
</g>
</svg>
