<?xml version="1.0" encoding="utf-8"?>
<!-- Generator: Adobe Illustrator 25.2.1, SVG Export Plug-In . SVG Version: 6.00 Build 0)  -->
<svg version="1.1" id="Layer_1" xmlns="http://www.w3.org/2000/svg" xmlns:xlink="http://www.w3.org/1999/xlink" x="0px" y="0px"
	 viewBox="0 0 100 100" style="enable-background:new 0 0 100 100;" xml:space="preserve">
<style type="text/css">
	.st0{fill:#1A7F9E;}
	.st1{fill:#FFFFFF;}
	.st2{font-family:'SFProDisplay-Bold';}
	.st3{font-size:11.4986px;}
</style>
<circle class="st0" cx="49.5" cy="50.27" r="48.5"/>
<g id="z9hXN6_2_">
	<g>
		<g>
			<path class="st1" d="M71.02,48.13c0,3.5,0.02,6.99,0,10.49C71,61.19,70.25,62,67.74,62.04c-3.35,0.04-6.7,0.04-10.03,0
				c-2.48-0.04-3.12-0.72-3.13-3.24c-0.02-1.94,0.04-3.88-0.02-5.8c-0.09-2.88-2.21-5.02-4.93-5.02c-2.7,0-4.85,2.14-4.94,5
				c-0.05,2.08-0.04,4.17-0.02,6.25c0.02,1.85-0.89,2.79-2.68,2.83c-3.64,0.04-7.28,0.02-10.94,0.02c-1.79,0-2.79-0.91-2.79-2.73
				c-0.02-7.35-0.05-14.72,0.05-22.08c0.02-0.89,0.65-1.99,1.34-2.63c5.87-5.27,11.83-10.41,17.73-15.65
				c1.49-1.3,2.75-1.41,4.29-0.05c5.98,5.25,12.04,10.41,17.97,15.7c0.76,0.69,1.27,2.01,1.32,3.06
				C71.12,41.14,71.02,44.63,71.02,48.13z"/>
		</g>
	</g>
</g>
<text transform="matrix(1 0 0 1 33.0596 78.6104)" class="st1 st2 st3">HOME</text>
</svg>
