<?xml version="1.0" encoding="utf-8"?>
<!-- Generator: Adobe Illustrator 25.2.1, SVG Export Plug-In . SVG Version: 6.00 Build 0)  -->
<svg version="1.1" id="Layer_1" xmlns="http://www.w3.org/2000/svg" xmlns:xlink="http://www.w3.org/1999/xlink" x="0px" y="0px"
	 viewBox="0 0 90 72" style="enable-background:new 0 0 90 72;" xml:space="preserve">
<style type="text/css">
	.st0{clip-path:url(#SVGID_2_);}
	.st1{clip-path:url(#SVGID_4_);fill:#FCE3DB;}
	.st2{fill:#F3CCC7;}
	.st3{fill:#FFFFFF;}
	.st4{fill:#4F479C;}
	.st5{fill:#F4923D;}
	.st6{fill:#F8AF97;}
	.st7{fill:#EE9E32;}
	.st8{fill:#894398;}
	.st9{fill:#A76DAD;}
	.st10{fill:#A86EAD;}
	.st11{fill:#C74F49;}
	.st12{fill:#F28030;}
	.st13{fill:#CBDCF0;}
	.st14{fill:#43AC66;}
	.st15{fill:#57BA69;}
	.st16{fill:#E9BD36;}
	.st17{fill:#DAD5E2;}
</style>
<g>
	<defs>
		<path id="SVGID_1_" d="M69.89,6.43c0,0.01-0.01,0.01-0.01,0.02c0,0-4.97,13.78-23.17,18.76C28.5,30.2,14.26,19.94,3.65,38.32
			C-7.52,57.66,20.46,76.51,47.22,69.03C73.92,61.57,89,38.18,89,19.77c0-10.42-3.38-16.11-7.5-18.03
			C77.14-0.29,72.42,2.04,69.89,6.43"/>
	</defs>
	<clipPath id="SVGID_2_">
		<use xlink:href="#SVGID_1_"  style="overflow:visible;"/>
	</clipPath>
	<g class="st0">
		<defs>
			<rect id="SVGID_3_" x="-15.13" y="-22.94" width="122.88" height="122.88"/>
		</defs>
		<clipPath id="SVGID_4_">
			<use xlink:href="#SVGID_3_"  style="overflow:visible;"/>
		</clipPath>
		<path class="st1" d="M-15.15-22.94h122.89V99.94H-15.15C-15.15-25.36-15.16-22.94-15.15-22.94"/>
	</g>
</g>
<g>
	<path class="st2" d="M38.43,15.08c0,4.62-3.74,8.36-8.36,8.36c-4.62,0-8.36-3.74-8.36-8.36c0-4.62,3.74-8.36,8.36-8.36
		C34.68,6.72,38.43,10.45,38.43,15.08 M30.08,6.47c-4.75,0-8.61,3.86-8.61,8.61s3.86,8.61,8.61,8.61c4.75,0,8.61-3.86,8.61-8.61
		C38.69,10.34,34.84,6.47,30.08,6.47 M75.17,4.18c3.55,1.65,6.56,6.63,6.56,15.89c0,16.32-13.41,37.16-37.17,43.8
		C20.9,70.48-3.97,53.88,5.9,36.78c9.41-16.29,21.96-7.11,38.34-11.59C60.55,20.72,65.08,8.36,65.12,8.27
		C67.32,4.46,71.39,2.42,75.17,4.18 M64.9,8.15c0,0.01-0.01,0.01-0.01,0.02c0,0-4.44,12.32-20.71,16.77
		C27.9,29.39,15.17,20.22,5.68,36.65c-9.99,17.3,15.03,34.15,38.94,27.46c23.87-6.67,37.36-27.58,37.36-44.04
		c0-9.31-3.03-14.41-6.7-16.12C71.38,2.14,67.16,4.22,64.9,8.15 M62.04,3.14c0,0.82-0.66,1.48-1.48,1.48
		c-0.82,0-1.48-0.66-1.48-1.48c0-0.82,0.66-1.48,1.48-1.48C61.38,1.66,62.04,2.32,62.04,3.14 M60.56,1.41
		c-0.96,0-1.73,0.78-1.73,1.73c0,0.96,0.78,1.73,1.73,1.73c0.96,0,1.73-0.78,1.73-1.73C62.3,2.19,61.52,1.41,60.56,1.41"/>
	<path class="st3" d="M8.18,2.01h29.19c1.58,0,2.85,1.27,2.85,2.85V52.5c0,1.58-1.27,2.85-2.85,2.85H8.18
		c-1.58,0-2.85-1.27-2.85-2.85V4.86C5.33,3.29,6.59,2.01,8.18,2.01"/>
	<path class="st4" d="M8.18,2.01c-1.58,0-2.85,1.27-2.85,2.85v2.85h34.89V4.86c0-1.58-1.27-2.85-2.85-2.85H8.18z"/>
	<path class="st3" d="M31.26,4.57c0,0.39-0.32,0.7-0.7,0.7c-0.39,0-0.7-0.32-0.7-0.7s0.32-0.7,0.7-0.7
		C30.94,3.87,31.26,4.18,31.26,4.57"/>
	<path class="st3" d="M34.08,4.57c0,0.39-0.32,0.7-0.7,0.7c-0.39,0-0.7-0.32-0.7-0.7s0.32-0.7,0.7-0.7
		C33.76,3.87,34.08,4.18,34.08,4.57"/>
	<path class="st3" d="M37.02,4.57c0,0.39-0.32,0.7-0.7,0.7c-0.39,0-0.7-0.32-0.7-0.7s0.32-0.7,0.7-0.7
		C36.71,3.87,37.02,4.18,37.02,4.57"/>
	<path d="M59.45,47.23h2.19L57.42,71.5h-1.1C59.52,46.72,59.44,47.23,59.45,47.23"/>
	<path d="M75.19,47.23H73l4.22,24.27h1.11C75.12,46.71,75.18,47.23,75.19,47.23"/>
	<path class="st5" d="M57.59,45.68h18.88c0.61,0,1.11,0.47,1.11,1.05c0,0.58-0.5,1.05-1.11,1.05H57.59c-0.61,0-1.11-0.47-1.11-1.05
		C56.48,46.14,56.98,45.68,57.59,45.68"/>
	<path d="M67.07,59.33l9.43,8.61H57.64C67.37,59.06,67.06,59.33,67.07,59.33 M60.07,52.61h14l-7,6.39
		C59.99,52.53,60.06,52.61,60.07,52.61 M59.76,52.32l-0.05,0.05h-0.07v0.07l-0.05,0.05l0.05,0.05v0.07h0.07l7.18,6.55l-9.88,9.01
		c21.27,0,19.73-0.02,19.81,0.05l0.05-0.05h0.07v-0.07L77,68.05l-0.05-0.05v-0.07c-0.12,0,0.67,0.68-9.69-8.77l7.44-6.79
		C58.66,52.37,59.84,52.4,59.76,52.32"/>
	<path class="st6" d="M48.35,67.92h2.29c0,0,0.92-6.15,0.92-8.36c0-2.21-3.08-2.05-3.55,0h0C48.01,59.57,48,59.37,48.35,67.92"/>
	<path d="M48,59.57c0,0,1.76,0.89,3.52,0.9c0.02-0.34,0.04-0.65,0.04-0.9C51.56,57.35,48.47,57.52,48,59.57"/>
	<path class="st7" d="M48.19,63.75l0.16,4.18h2.29c0,0,0.26-1.99,0.51-4.18H48.19z"/>
	<path class="st6" d="M58.17,67.92h2.29c0,0-0.09-6.09-0.5-8.29c-0.42-2.21-3.47-2.05-3.55,0C56.41,59.63,56.35,59.39,58.17,67.92"
		/>
	<path d="M56.4,59.63c0,0,1.93,0.89,3.69,0.9c-0.04-0.34-0.09-0.65-0.13-0.9C59.54,57.42,56.49,57.58,56.4,59.63"/>
	<path class="st7" d="M57.29,63.75l0.89,4.18h2.29c0,0,0.03-1.99-0.14-4.18H57.29z"/>
	<path d="M59.11,67.05c-0.58,0.13-0.64,0.15-1.08,0.25l0.14,0.63h2.29c0.05-0.73-0.03-1.51-0.02-1.51
		C60.46,66.42,60,66.84,59.11,67.05"/>
	<path class="st3" d="M61.08,68.82c-0.25-1.38-0.4-1.65-1.41-1.46c0,0,0.2,1.39,0.68,1.58C60.84,69.12,61.09,68.82,61.08,68.82"/>
	<path class="st8" d="M57.61,67.37c0.11,1.03-1.87,2.78-2.05,3.02c-0.52,0.67-0.12,1.1-0.12,1.1h6.14c0.22-1.06,0.01-2.38-0.5-2.67
		c-0.92,0.25-1.41-1.46-1.41-1.46H59C58.86,66.84,57.61,66.57,57.61,67.37"/>
	<path d="M60.48,70.72h-4.21c-0.14,0.25-0.27,0.51-0.39,0.78h5.69c0.13-0.6,0.24-1.31-0.03-1.84
		C61.55,69.65,61.52,69.67,60.48,70.72"/>
	<path d="M55.37,70.72c-0.2,0.48,0.07,0.78,0.07,0.78h3.38c0,0,0.46,0,0.02-0.58c-0.05-0.07-0.12-0.13-0.21-0.19H55.37z"/>
	<path class="st9" d="M58.85,67.89c0.47,0.03,0.62,0.64,0.51,1.09c-0.03,0.11-0.12,0.34-0.22,0.34c-0.16,0-0.94-1.03-1.03-1.16
		c0.06-0.05,0.16-0.13,0.35-0.21C58.71,67.87,58.86,67.89,58.85,67.89 M58.38,67.75c-0.29,0.12-0.51,0.3-0.51,0.3
		c-0.05,0.04-0.05,0.11-0.02,0.15c0,0,0.63,0.88,1.07,1.26c0.55,0.47,1.02-0.93,0.43-1.57C59.15,67.67,58.82,67.57,58.38,67.75"/>
	<path class="st9" d="M57.42,67.96c0.2,0.08,0.29,0.16,0.35,0.21c-0.09,0.13-0.87,1.16-1.03,1.16c-0.1,0-0.19-0.24-0.22-0.34
		c-0.11-0.45,0.04-1.06,0.51-1.09C57.17,67.88,57.31,67.92,57.42,67.96 M57.03,67.66c-1.04,0.07-0.89,1.89-0.28,1.9
		c0.08,0,0.16-0.03,0.23-0.09c0.44-0.38,1.07-1.26,1.07-1.26c0.04-0.05,0.03-0.12-0.02-0.16C57.76,67.84,57.36,67.64,57.03,67.66
		L57.03,67.66z"/>
	<path class="st9" d="M57.52,69.02c-0.04,0.05-0.04,0.12,0.01,0.16c0.05,0.04,0.12,0.04,0.16-0.01c0.12-0.12,0.3-0.14,0.46,0.04
		c0.04,0.05,0.11,0.05,0.16,0.01c0.05-0.04,0.05-0.11,0.01-0.16C58.08,68.79,57.73,68.79,57.52,69.02L57.52,69.02z"/>
	<path class="st9" d="M57.14,69.75c-0.04,0.05-0.04,0.12,0.01,0.16c0.05,0.04,0.12,0.04,0.16-0.01c0.12-0.12,0.3-0.14,0.46,0.04
		c0.04,0.05,0.11,0.05,0.16,0.01c0.05-0.04,0.05-0.11,0.01-0.16C57.69,69.51,57.35,69.52,57.14,69.75L57.14,69.75z"/>
	<path class="st8" d="M61.66,38.68c0,0-11.41,5.81-13.13,6.84c-1.73,1.02-1.35,3.62-1.35,3.62c0.06,1.91,0.44,6.45,0.64,8.9
		c-0.71,1.11,0.06,1.64,0.14,1.63h3.55c0.13,0.03,1.33-0.2,0.51-1.52c0.46-1.61,1.1-4.57,1.4-9.01c0.05,0.19,1.49,7.25,2.2,9.14
		c-0.41,1.41,0.4,1.34,0.78,1.36l3.58-0.16c0.33,0,0.72-0.82-0.05-1.41c0.22-3.11-0.79-8.8-0.79-8.93c0,0,9.12-1.85,11.63-3.29
		c1.49-0.86,1.59-1.85,1.62-3c0.04-1.68-0.85-3.55-1.91-4.16H61.66z"/>
	<path d="M48.33,67.43l0.02,0.49h2.29c0,0,0.06-0.47,0.15-1.18C50.83,66.75,49.9,67.09,48.33,67.43"/>
	<path class="st3" d="M49.62,68.59c-0.68-0.18-0.48-1.23-0.48-1.23c2.3-0.27,2,0.33,2,1.5C51.19,68.87,50.36,68.79,49.62,68.59"/>
	<path class="st8" d="M51.54,71.5c0.51-0.88,0.28-1.64-0.41-2.63c-1.3-0.12-1.79-0.35-2-1.5h-0.58c0,0-0.77-0.71-1.17,0.52
		c-0.4,1.22-3.29,1.44-4.42,2.08c-1.27,0.72-1.27,1.54-0.31,1.54H51.54z"/>
	<path d="M50.68,70.31c-0.49,0.49-1.42,0.41-1.42,0.41h-7.17c-0.27,0.44-0.05,0.78,0.57,0.78h8.89c0.37-0.64,0.35-1.23,0.04-1.88
		C51.61,69.62,51.14,69.84,50.68,70.31"/>
	<path class="st9" d="M48.83,68.86c0.07,0.4-0.22,0.77-0.43,0.83c-0.47,0.14-1.01-0.89-1.2-1.35c0.22-0.19,0.45-0.29,0.66-0.29v0
		C48.33,68.05,48.76,68.43,48.83,68.86 M45.48,68.03c-0.07,0.22,0.02,0.74,0.18,1.06c0.07-0.02,0.21-0.09,0.21-0.09
		c-0.14-0.3-0.22-0.74-0.17-0.9c0.05-0.17,0.18-0.26,0.32-0.32c0.56-0.23,0.93,0.57,0.93,0.57c0.26,0.63,0.86,1.75,1.52,1.56
		c0.32-0.1,0.67-0.57,0.59-1.09c-0.14-0.83-1.17-1.35-1.96-0.71C46.7,67.32,45.69,67.36,45.48,68.03"/>
	<path class="st9" d="M46,68.45c-0.06,0.01-0.11,0.06-0.1,0.13c0,0.03,0.04,0.11,0.12,0.1c0.17-0.02,0.32,0.09,0.32,0.33
		c0,0.06,0.05,0.11,0.11,0.11c0.06,0,0.11-0.05,0.11-0.11c0-0.18-0.07-0.34-0.17-0.43C46.22,68.42,45.99,68.45,46,68.45"/>
	<path class="st9" d="M45.24,68.89c-0.15,0.01-0.13,0.24,0.02,0.23c0.17-0.02,0.32,0.1,0.32,0.33c0,0.06,0.05,0.11,0.11,0.11
		c0.04,0,0.11-0.03,0.11-0.11c0-0.18-0.07-0.34-0.17-0.43C45.46,68.85,45.23,68.89,45.24,68.89"/>
	<path class="st10" d="M52.9,49.66c-0.04,0-0.08,0.02-0.1,0.05c-0.41,0.53-1.54,1.99-1.73,2.62c-0.23,0.73-1.17,5.6-1.15,5.67
		l0.34,1.66h0.26l-0.34-1.69c0.14-0.74,0.92-4.84,1.14-5.57c0.18-0.59,1.31-2.05,1.69-2.54C53.06,49.78,53,49.66,52.9,49.66
		 M59.39,39.84c-0.09,0.05-0.19,0.1-0.28,0.15c0.8,0.43,2.08,1.11,2.53,1.28c2.82,1.07,5.39,1.14,8.35,0.73
		c0.33,0.32,0.6,0.62,0.92,0.87c-0.5,0.16-4.77,2.31-7.04,3.09c-1.26,0.43-3.74,1.3-4.95,1.85c-0.7,0.32-0.88,0.4-0.83,1
		c0.09,1.15,1.18,3.68,1.65,4.74c-0.03-0.27-0.06-0.56-0.1-0.85c0.01,0-1.21-2.72-1.3-3.9c-0.02-0.23,0.02-0.37,0.06-0.41
		c0.43-0.43,4.96-1.99,5.55-2.19c2.53-0.87,7.12-3.12,7.21-3.15c0.38,0.24,0.76,0.36,1.2,0.41c0.01-0.08,0.01-0.17,0.02-0.25
		c-0.98-0.12-1.4-0.59-2.08-1.27c0.82-0.13,1.46-0.28,1.96-0.42c-0.02-0.08-0.04-0.16-0.06-0.25c-0.92,0.27-2.35,0.56-4.52,0.68
		c-2.4,0.13-4.48-0.37-5.95-0.93C61.18,40.82,59.41,39.84,59.39,39.84"/>
	<path d="M53.42,49.13c0,0-0.25-1.27-0.22-1.84c0.02-0.57,0.45-0.88,0.45-0.88s-1.56,0.36-1.38,2.17c0.18,1.81,0.88,3.54,0.88,3.54
		C53.43,49,53.41,49.13,53.42,49.13"/>
	<path d="M52.02,58.14h-1.36c0,0-0.23-0.32,0.36-0.59c0.59-0.27,1.49-1.39,1.49-1.39C52.01,58.22,52.01,58.14,52.02,58.14"/>
	<path d="M58.38,58.06c0,0-0.25-0.31,0.5-0.62c0.75-0.32,1.04-1.79,1.04-1.79s0.22,1.93,0.02,2.41H58.38z"/>
	<path class="st6" d="M34.25,24.49c0.01,0.78,1.45,2.37,1.9,2.58c0.47,0.22,2.39-0.24,3.25-0.42c0-0.07,2.1,0.39,4.22,0.81
		l-0.94-2.95c-4.22,0.19-3.7,0.17-3.74,0.17c0.01,0-1.11-0.67-1.43-0.85c-0.46-0.26-1.26-0.94-1.56-1.17
		c-0.3-0.23-0.49,0.24-0.21,0.68c0.27,0.43,0.4,0.74,0.4,0.74s-1.09-0.01-1.34-0.01C34.4,24.06,34.25,24.23,34.25,24.49L34.25,24.49
		z"/>
	<path d="M42.69,24.51l-0.48,2.65l1.42,0.3C42.67,24.43,42.68,24.51,42.69,24.51"/>
	<path d="M38.95,24.67l0.34,0.86c0,0,0.09,0.08,0.16-0.14c0.08-0.22,0.34-0.75,0.34-0.75C39.22,24.66,38.94,24.67,38.95,24.67"/>
	<path d="M37.15,24.83c0.48,0.13,1.26,1.13,1.16,1.53c-0.1,0.41-0.31,0.46-0.35,0.43c-0.05-0.03-0.44-1.06-0.92-1.4
		c-0.47-0.34-1.06-0.6-1.3-0.7c-0.24-0.11,0.41-0.61,0.41-0.61h0C36.16,24.07,36.64,24.69,37.15,24.83"/>
	<path class="st7" d="M57.73,23.75c3.42,0.12,4.04,3.6,1.88,4.86c-0.39,0.24-0.89,0.28-1.34,0.2c0,0-12.88-1.22-13.77-1.29
		c0.02-0.74-0.23-1.74-0.6-2.47c-0.17-0.33-0.34-0.51-0.51-0.6l2.89-0.22C47.63,24.17,56.35,23.7,57.73,23.75"/>
	<path class="st3" d="M42.69,24.51l0.29,2.89c0,0,0.76,1.48,1.26,0.98c0.5-0.5,0.21-2.23-0.34-3.32
		C43.34,23.96,42.68,24.51,42.69,24.51"/>
	<path class="st11" d="M59.36,16.32c-3.08,5.73,2.66,4.63,2.66,4.63s-0.56-8.08-2.12-8.42C59.92,12.53,60.09,14.97,59.36,16.32"/>
	<path class="st3" d="M60.98,37.28c-0.05,0-1.1,1.65-0.35,1.76c4.19,0.58,6.28,0.74,10.37,0c0.7-0.13-0.9-2.01-0.95-2.01
		C69.89,37.03,60.99,37.28,60.98,37.28"/>
	<path class="st12" d="M65.24,21.75l6.79,2.49c0,0-2.67,7.31-2.41,10.72c0.35,1.72,1.43,2.48,0.75,2.92c-3.89,0.48-5.43,0.8-9.75,0
		c-0.85-2.02-0.45-2.2-0.65-3.53c0,0-2.45-9.44-2.59-10.11c0.71-0.47,3.97-2.37,3.97-2.37C66.49,21.71,64.94,21.75,65.24,21.75"/>
	<path class="st6" d="M65.24,21.75l-3.89,0.12c0,0-1.23,0.72-2.34,1.38c1.47,2.34,2.82,3.43,3.48,3.53c0.66,0.1,4.13-1.51,5.87-3.89
		C66.69,22.28,65.23,21.75,65.24,21.75"/>
	<path d="M67.79,35.54c0.69,0.19,1.49,0.27,2.08,0.3c-0.1-0.26-0.2-0.56-0.26-0.88c-0.01-0.12-0.01-0.25-0.02-0.38
		c-1.04-0.03-2.56-0.17-3.56-0.69C66.04,33.88,66.52,35.18,67.79,35.54"/>
	<path class="st7" d="M64.78,21.39c0,0,0.14,5.6,0.65,9c0.51,3.4,0.03,4.38,1.72,4.53c0.74,0.07,1.43,0.11,1.97,0.09
		c0.69-0.02,2.15,0.09,1.38-1.76c0.33-1.8,0.96-4.87,1.29-5.74c0.46-1.19,0.75-2.57,0.23-3.28C71.46,23.47,64.44,21.39,64.78,21.39"
		/>
	<path class="st6" d="M64.57,16.91l0.12,4.39c0,3.29-3.54,3.27-3.54,0.57l0.64-3.08C64.75,16.78,64.56,16.91,64.57,16.91"/>
	<path d="M61.8,18.79l-0.28,1.35c0.55,0.04,1.34,0,1.95-0.48c1.06-0.83,0.07-2.05,0.07-2.05C63.53,17.62,61.78,18.79,61.8,18.79"/>
	<path class="st6" d="M60.62,17.52c0,0,0.32,1.72,1.6,1.72c0.91,0,2.35-1.71,2.37-2.6c0.02-0.89,0-2.32,0-3.7
		c0-1.39-4.51-2.03-4.33,0.18C60.27,13.12,60.25,12.97,60.62,17.52"/>
	<path d="M60.34,15.7c-0.21,0-0.07,0.55,0.35,0.52c0.42-0.03,0.66-1.44,0.33-1.11C61.03,15.11,60.54,15.7,60.34,15.7"/>
	<path class="st11" d="M63.13,15.91c1.22,0.75,1.91,0.12,1.91,0.12l-0.83,0.69c0,0-1.87-0.08-2.62-2.37
		c-0.75-2.3-0.11-2.91-0.11-2.91l-0.11,1.06C61.39,12.5,61.89,15.15,63.13,15.91"/>
	<path d="M61.49,23.98c0.29,4.96,0.5,7.87,0.42,9.97c0,0-1.5-7.53-1.41-8.96C60.6,23.56,61.11,23.9,61.49,23.98"/>
	<path class="st7" d="M61.35,21.87c0,0-4.06,1.77-4.22,2.05c-0.13,0.24,1.17,6.46,1.84,8.93c0.12,0.45-0.28,0.72-0.09,1.12
		c0.53,1.13,2.56,0.78,2.92,0.65c0.36-0.13,0.29-0.71,0.13-1.47c-0.15-0.76-1.33-8.79-1.22-9.4C60.82,23.2,61.34,21.87,61.35,21.87"
		/>
	<path class="st3" d="M62.23,22.21c-1.2,0.08-0.72-0.99-0.88-1.25c0,0-0.79-0.34-1.45,0.11c-0.66,0.44,0.03,0.92-0.14,1.21
		c-0.17,0.29-0.64,1.38,1.65,2.33c2.29,0.95,4.52,0,5.14-0.92c0.62-0.92,0.31-1.87,0.09-2.27c-0.22-0.4-1.93-0.35-1.93-0.35
		l0.07,0.32C64.8,21.39,63.44,22.2,62.23,22.21"/>
	<path class="st13" d="M63.57,21.99c0,0,0.65,1.22,0.47,2.04c-0.18,0.81-0.95,0.68-1.64,0.52c-0.35-0.08-0.47,0.07-0.51,0.23
		c1.08,0.33,2.12,0.26,2.96,0C65.17,23.5,63.51,21.99,63.57,21.99"/>
	<path class="st3" d="M63.13,22.11c0,0,1.15,0.03,1.47,1.98c0.32,1.94-0.23,3.46,0.03,4.23c0.26,0.77,0.25,0.64,0.25,0.64
		s0.75,0.29,1.6,0.2c0.85-0.09,1.32-0.52,1.32-0.52s-0.6-0.41-0.62-1.56c-0.02-1.15,0.11-3.02-0.55-4.38
		c-0.66-1.36-1.92-1.78-2.72-1.5c-0.8,0.28-1.62,1.02-1.62,1.02C62.61,22.22,62.85,22.15,63.13,22.11"/>
	<path class="st11" d="M63.47,10.22c-0.47-0.01-0.78,0.04-0.78,0.04s0.04,0.07,0.1,0.16c-0.56-0.13-1.19,0.02-1.86,0.67
		c0,0-0.89-0.98-1.58-0.57c-0.69,0.41,0.56,2.01,0.56,2.01l0.36,0.59c0-0.33,0.11-1.05,0.83-0.64c0.62,0.35,1.22,3.59,3.24,2.9
		c0.02,0.49,0,0.98-0.11,1.33c-0.32,0.96-1.21,2.94-0.26,4.06c0.95,1.12,3.58,0.64,4.15-0.66c0.57-1.3-1.26-3.12-1.15-4.44
		c0.11-1.32,0.64-3.14-0.69-4.46C65.55,10.51,64.45,10.22,63.47,10.22"/>
	<path d="M62.88,10.68c-1.2-0.23-1.96,0.41-1.96,0.41s0.61-0.98,2.2-0.89c1.59,0.09,3.31,2.63,1.95,3
		C65.08,13.2,64.34,10.95,62.88,10.68"/>
	<path d="M59.77,22.05c0.07,0.24-0.06,0.21-0.14,0.56c0.1,0.07,0.2,0.13,0.31,0.18c0.47,0.21,1.32,0.12,0.43-0.31
		C60.08,22.34,59.9,22.19,59.77,22.05"/>
	<path d="M66.39,30.16c0.02,0.09-0.04,0.17-0.13,0.17c-0.09,0-0.18-0.07-0.2-0.17c-0.02-0.09,0.04-0.17,0.13-0.17
		C66.28,29.99,66.37,30.06,66.39,30.16"/>
	<path d="M66.52,31.85c0.02,0.09-0.04,0.17-0.13,0.17c-0.09,0-0.18-0.07-0.2-0.17c-0.02-0.09,0.04-0.17,0.13-0.17
		C66.41,31.68,66.5,31.75,66.52,31.85"/>
	<path d="M66.7,33.6c0.02,0.09-0.04,0.17-0.13,0.17c-0.09,0-0.18-0.07-0.2-0.17c-0.02-0.09,0.04-0.17,0.13-0.17
		C66.59,33.43,66.68,33.51,66.7,33.6"/>
	<path class="st6" d="M68.01,38.58c0-0.08,0.04-0.12,0.12-0.13c0.33-0.06,1.59-0.12,2.03-0.27c0.45-0.15,1.76-0.4,1.76-0.4
		c0.01,0-0.14,0.17,2.38-2.89l2.29,1.79c-1.61,1.41-3.05,2.41-3.13,2.47c-0.39,0.68-1.29,2.19-1.72,2.37
		c-0.55,0.24-2.08-0.03-2.38,0.03c-0.3,0.05-1.43-0.32-1.12-0.84c0.11-0.19,1.21-1.47,1.21-1.47s-0.34-0.04-0.79-0.12
		C68.33,39.06,68.02,38.76,68.01,38.58"/>
	<path class="st7" d="M71,23.9c-2.5,0.07-3.62,3.42-0.69,5.17c1.65,0.98,6.27,3.04,6.27,3.04l-1.84,2.24
		c0.18-0.05,0.43-0.06,0.78,0.05c0.78,0.23,1.67,0.75,2.2,1.27c0.67-0.6,1.29-1.19,1.78-1.68c0.47-0.47,1.54-1.59,0.32-2.98
		c-0.34-0.39-1.17-1.12-1.85-1.72l-5.71-4.91c-0.41-0.32-0.81-0.46-1.2-0.47v0C71.09,23.9,71.04,23.9,71,23.9"/>
	<path d="M72.37,37.21l-0.46,0.57l1.04,0.7c0,0,0.19,0.13,0.17-0.11C73.11,38.17,72.72,37.49,72.37,37.21"/>
	<path class="st3" d="M76.58,36.67c0,0,1.6,0.47,1.58-0.23c-0.01-0.71-1.47-1.69-2.64-2.05c-1.17-0.35-1.23,0.49-1.23,0.49
		C74.31,34.88,74.14,34.76,76.58,36.67"/>
	<path d="M76.59,32.1l1.15-0.63c0,0,0.1-0.08-0.12-0.18c-0.22-0.1-2.02,0.36-2.02,0.36C76.7,32.15,76.57,32.1,76.59,32.1"/>
	<path d="M74.3,34.88l1.7,2.29l0.59-0.5C74.33,34.91,74.29,34.88,74.3,34.88"/>
	<path d="M68.76,39.13c0.46,0.11,0.69,0.11,0.69,0.11C69.59,38.69,69.24,39.03,68.76,39.13"/>
	<path class="st6" d="M33.26,21.43c0.14-0.1,1.36,0.44,1.64,0.83l0.32,0.45c0.27,0.38-1.11,1.37-1.38,0.99l-0.32-0.45
		C33.24,22.86,33.12,21.52,33.26,21.43"/>
	<path class="st7" d="M37.75,29.16c0.27,0.38,0.8,0.47,1.18,0.2s0.47-0.8,0.2-1.18l-4.22-5.89l-0.51,0.02l-0.15,0.47l-0.54,0.02
		l-0.19,0.49C33.54,23.26,37.76,29.17,37.75,29.16"/>
	<path class="st11" d="M37.15,28.32l0.6,0.84c0.27,0.38,0.8,0.47,1.18,0.2s0.47-0.8,0.2-1.18l-0.6-0.84
		C37.23,28.26,37.14,28.32,37.15,28.32"/>
	<path d="M33.26,21.43c-0.07,0.05-0.07,0.42-0.02,0.83l0.81-0.58C33.68,21.5,33.33,21.38,33.26,21.43"/>
	<path class="st3" d="M37.15,28.32l0.31,0.43l1.38-0.99l-0.31-0.43C37.23,28.26,37.14,28.32,37.15,28.32"/>
	<path d="M37.01,28.12l0.14,0.2l1.38-0.99l-0.31-0.43C37.03,28.1,37,28.12,37.01,28.12"/>
	<path class="st14" d="M75.15,66.11c-0.5,0.25-0.66,1.37-0.43,3c-0.38-0.41-1.08-1.04-1.56-0.76c-0.47,0.27-0.58,1.33-0.29,2.86
		h6.01c-1.06-2.96-2.56-5.17-3.49-5.16C75.4,66.06,75.28,66.05,75.15,66.11"/>
	<path class="st15" d="M81.34,60.98c-1.61,0.02-3.96,6.38-3.81,10.24h7.53c0.86-1.95,0.13-2.59-1.65-1.6
		c2.44-4.12,1.61-6.08-1.54-3.2c0.63-3.01,0.44-5.33-0.45-5.44C81.39,60.98,81.37,60.98,81.34,60.98L81.34,60.98z"/>
	<path d="M81.86,66.42c0,0-0.61,0.77-0.87,1.59l-0.26,0.81c0,0-0.01-1.05,0.31-2.16c0.32-1.11,1.06-1.64,1.06-1.64
		C81.89,66.5,81.85,66.42,81.86,66.42"/>
	<path class="st15" d="M11.5,59.29c1.06,0.01,2.56,2.53,3.78,6.34c0.69-1.34,1.37-2.01,1.93-1.91c0.89,0.16,1.36,2.3,1.21,5.57
		c1.1,0.22,3.59,0.84,3.29,1.93H1.55c0.24-0.46,0.99-0.91,2.17-1.3c-2.74-4.26-0.94-5.19,3.56-1.99c-0.97-3.66,0.67-3.9,3.42-1.01
		c-0.69-4.27-0.42-7.37,0.66-7.63C11.44,59.28,11.51,59.29,11.5,59.29"/>
	<path d="M10.7,66.93c1.09,1.61,1.37,2.41,1.79,3.41c0,0-0.29-3.16-2.05-5.38C10.45,64.95,10.48,65.55,10.7,66.93"/>
	<path d="M3.72,69.92l0.82,1.3c-0.6-0.31-0.98-0.71-1.25-1.15C3.8,69.89,3.71,69.92,3.72,69.92"/>
	<path d="M73.46,4.57h11.81c0.64,0,1.15,0.51,1.15,1.15v9.76c0,0.64-0.51,1.15-1.15,1.15H73.46c-0.64,0-1.15-0.51-1.15-1.15V5.72
		C72.31,5.09,72.82,4.57,73.46,4.57"/>
	<path class="st3" d="M72.44,3.55h11.81c0.64,0,1.15,0.51,1.15,1.15v9.76c0,0.64-0.51,1.15-1.15,1.15H72.44
		c-0.64,0-1.15-0.51-1.15-1.15V4.7C71.28,4.06,71.8,3.55,72.44,3.55"/>
	<path class="st11" d="M72.44,3.55c-0.64,0-1.15,0.51-1.15,1.15v1.04H85.4V4.7c0-0.64-0.51-1.15-1.15-1.15H72.44z"/>
	<path class="st12" d="M75.05,3.55c0-1-1.21-1.51-1.92-0.8c-0.71,0.71-0.2,1.92,0.8,1.92V3.55H75.05z"/>
	<path d="M82.63,3.55l0,1.13c0.14-0.53,0.48-0.93,1.13-1.13H82.63z"/>
	<path class="st12" d="M83.75,3.55c0-1-1.21-1.51-1.92-0.8c-0.71,0.71-0.2,1.92,0.8,1.92V3.55H83.75z"/>
	<path d="M73.92,3.55l0,1.13c0.14-0.53,0.48-0.93,1.13-1.13H73.92z"/>
	<path d="M75.5,8.66c0,0.71-0.57,1.28-1.28,1.28c-0.71,0-1.28-0.57-1.28-1.28c0-0.71,0.57-1.28,1.28-1.28
		C74.93,7.38,75.5,7.95,75.5,8.66"/>
	<path class="st15" d="M75.3,8.34c0,0.71-0.57,1.28-1.28,1.28c-0.71,0-1.28-0.57-1.28-1.28c0-0.71,0.57-1.28,1.28-1.28
		C74.73,7.06,75.3,7.63,75.3,8.34"/>
	<path d="M79.54,8.66c0,0.71-0.57,1.28-1.28,1.28c-0.71,0-1.28-0.57-1.28-1.28c0-0.71,0.57-1.28,1.28-1.28
		C78.97,7.38,79.54,7.95,79.54,8.66"/>
	<path class="st15" d="M79.34,8.34c0,0.71-0.57,1.28-1.28,1.28c-0.71,0-1.28-0.57-1.28-1.28c0-0.71,0.57-1.28,1.28-1.28
		C78.77,7.06,79.34,7.63,79.34,8.34"/>
	<path d="M83.66,8.66c0,0.71-0.57,1.28-1.28,1.28c-0.71,0-1.28-0.57-1.28-1.28c0-0.71,0.57-1.28,1.28-1.28
		C83.09,7.38,83.66,7.95,83.66,8.66"/>
	<path class="st15" d="M83.46,8.34c0,0.71-0.57,1.28-1.28,1.28S80.9,9.05,80.9,8.34c0-0.71,0.57-1.28,1.28-1.28
		S83.46,7.63,83.46,8.34"/>
	<path d="M75.5,12.29c0,0.71-0.57,1.28-1.28,1.28c-0.71,0-1.28-0.57-1.28-1.28c0-0.71,0.57-1.28,1.28-1.28
		C74.93,11.01,75.5,11.58,75.5,12.29"/>
	<path class="st15" d="M75.3,11.97c0,0.71-0.57,1.28-1.28,1.28c-0.71,0-1.28-0.57-1.28-1.28c0-0.71,0.57-1.28,1.28-1.28
		C74.73,10.69,75.3,11.26,75.3,11.97"/>
	<path d="M79.54,12.29c0,0.71-0.57,1.28-1.28,1.28c-0.71,0-1.28-0.57-1.28-1.28c0-0.71,0.57-1.28,1.28-1.28
		C78.97,11.01,79.54,11.58,79.54,12.29"/>
	<path class="st15" d="M79.34,11.97c0,0.71-0.57,1.28-1.28,1.28c-0.71,0-1.28-0.57-1.28-1.28c0-0.71,0.57-1.28,1.28-1.28
		C78.77,10.69,79.34,11.26,79.34,11.97"/>
	<path d="M83.66,12.29c0,0.71-0.57,1.28-1.28,1.28c-0.71,0-1.28-0.57-1.28-1.28c0-0.71,0.57-1.28,1.28-1.28
		C83.09,11.01,83.66,11.58,83.66,12.29"/>
	<path class="st15" d="M83.46,11.97c0,0.71-0.57,1.28-1.28,1.28s-1.28-0.57-1.28-1.28c0-0.71,0.57-1.28,1.28-1.28
		S83.46,11.26,83.46,11.97"/>
	<path d="M71.28,5.74H85.4v0.47C85.25,6.2,71.27,5.74,71.28,5.74"/>
	<path d="M29.25,18.14c0,3.57-2.89,6.48-6.48,6.48c-3.58,0-6.48-2.9-6.48-6.48c0-3.58,2.9-6.48,6.48-6.48
		C26.34,11.66,29.25,14.55,29.25,18.14"/>
	<path class="st16" d="M29.25,17.26c0,3.57-2.89,6.48-6.48,6.48c-3.58,0-6.48-2.9-6.48-6.48c0-3.58,2.9-6.48,6.48-6.48
		C26.34,10.78,29.25,13.67,29.25,17.26"/>
	<path class="st12" d="M24.8,15.05c0,1.12-0.91,2.03-2.03,2.03c-1.12,0-2.03-0.91-2.03-2.03c0-1.12,0.91-2.03,2.03-2.03
		C23.89,13.02,24.8,13.93,24.8,15.05"/>
	<path class="st12" d="M22.77,18.51c-2.58,0-4.69,1.39-4.77,3.14c2.57,2.79,6.97,2.79,9.53,0C27.46,19.9,25.35,18.51,22.77,18.51"/>
	<path class="st17" d="M12.85,33.4H32.7c0.96,0,1.73,0.77,1.73,1.73s-0.77,1.73-1.73,1.73H12.85c-0.96,0-1.73-0.77-1.73-1.73
		C11.12,34.18,11.89,33.4,12.85,33.4"/>
	<path class="st17" d="M12.91,39.14h19.85c0.96,0,1.73,0.77,1.73,1.73c0,0.96-0.77,1.73-1.73,1.73H12.91
		c-0.96,0-1.73-0.77-1.73-1.73C11.18,39.91,11.95,39.14,12.91,39.14"/>
	<path d="M15.16,41.64c-0.07,0.05-0.46-0.15-0.55-0.15c-0.09,0-0.47,0.21-0.55,0.16c-0.07-0.05,0-0.48-0.03-0.57
		c-0.03-0.09-0.35-0.38-0.32-0.47c0.03-0.09,0.46-0.15,0.53-0.2c0.07-0.05,0.26-0.45,0.35-0.45c0.09,0,0.28,0.39,0.36,0.44
		c0.07,0.05,0.51,0.11,0.54,0.19c0.03,0.09-0.28,0.39-0.31,0.48C15.16,41.15,15.23,41.64,15.16,41.64"/>
	<path d="M19.28,41.64c-0.07,0.05-0.46-0.15-0.55-0.15c-0.09,0-0.47,0.21-0.55,0.16c-0.07-0.05,0-0.48-0.03-0.57
		c-0.03-0.09-0.35-0.38-0.32-0.47c0.03-0.09,0.46-0.15,0.53-0.2c0.07-0.05,0.26-0.45,0.35-0.45c0.09,0,0.28,0.39,0.36,0.44
		c0.07,0.05,0.51,0.11,0.54,0.19c0.03,0.09-0.28,0.39-0.31,0.48C19.27,41.15,19.35,41.64,19.28,41.64"/>
	<path d="M23.39,41.64c-0.07,0.05-0.46-0.15-0.55-0.15c-0.09,0-0.47,0.21-0.55,0.16c-0.07-0.05,0-0.48-0.03-0.57
		c-0.03-0.09-0.35-0.38-0.32-0.47c0.03-0.09,0.46-0.15,0.53-0.2c0.07-0.05,0.26-0.45,0.35-0.45c0.09,0,0.28,0.39,0.36,0.44
		c0.07,0.05,0.51,0.11,0.54,0.19c0.03,0.09-0.28,0.39-0.31,0.48C23.39,41.15,23.46,41.64,23.39,41.64"/>
	<path d="M27.5,41.64c-0.07,0.05-0.46-0.15-0.55-0.15c-0.09,0-0.47,0.21-0.55,0.16c-0.07-0.05,0-0.48-0.03-0.57
		c-0.03-0.09-0.35-0.38-0.32-0.47c0.03-0.09,0.46-0.15,0.53-0.2c0.07-0.05,0.26-0.45,0.35-0.45c0.09,0,0.28,0.39,0.36,0.44
		c0.07,0.05,0.51,0.11,0.54,0.19c0.03,0.09-0.28,0.39-0.31,0.48C27.5,41.15,27.57,41.64,27.5,41.64"/>
	<path d="M31.62,41.64c-0.07,0.05-0.46-0.15-0.55-0.15c-0.09,0-0.47,0.21-0.55,0.16c-0.07-0.05,0-0.48-0.03-0.57
		c-0.03-0.09-0.35-0.38-0.32-0.47c0.03-0.09,0.46-0.15,0.53-0.2c0.07-0.05,0.26-0.45,0.35-0.45c0.09,0,0.28,0.39,0.36,0.44
		c0.07,0.05,0.51,0.11,0.54,0.19c0.03,0.09-0.28,0.39-0.31,0.48C31.61,41.15,31.69,41.64,31.62,41.64"/>
	<path class="st15" d="M17.17,46.71h11.21c0.96,0,1.73,0.77,1.73,1.73v1.07c0,0.96-0.77,1.73-1.73,1.73H17.17
		c-0.96,0-1.73-0.77-1.73-1.73v-1.07C15.44,47.48,16.21,46.71,17.17,46.71"/>
	<path d="M17.81,48.83c-0.07,0-0.13,0.06-0.13,0.13c0,0.07,0.06,0.13,0.13,0.13h9.91c0.07,0,0.13-0.06,0.13-0.13
		c0-0.07-0.06-0.13-0.13-0.13H17.81z"/>
	<path d="M14.01,35.07c-0.07,0-0.13,0.06-0.13,0.13c0,0.07,0.06,0.13,0.13,0.13h17.52c0.07,0,0.13-0.06,0.13-0.13
		c0-0.07-0.06-0.13-0.13-0.13H14.01z"/>
	<path d="M19.72,29.43c-0.07,0-0.13-0.06-0.13-0.13c0-0.07,0.06-0.13,0.13-0.13h6.11c0.07,0,0.13,0.06,0.13,0.13
		c0,0.07-0.06,0.13-0.13,0.13H19.72z"/>
	<path d="M14.65,27.17c-0.07,0-0.13-0.06-0.13-0.13c0-0.07,0.06-0.13,0.13-0.13H30.9c0.07,0,0.13,0.06,0.13,0.13
		c0,0.07-0.06,0.13-0.13,0.13H14.65z"/>
</g>
</svg>
