<?xml version="1.0" encoding="utf-8"?>
<!-- Generator: Adobe Illustrator 25.2.1, SVG Export Plug-In . SVG Version: 6.00 Build 0)  -->
<svg version="1.1" id="Layer_1" xmlns="http://www.w3.org/2000/svg" xmlns:xlink="http://www.w3.org/1999/xlink" x="0px" y="0px"
	 viewBox="0 0 93 67" style="enable-background:new 0 0 93 67;" xml:space="preserve">
<style type="text/css">
	.st0{fill:#E3EBF7;}
	.st1{fill:#A7CBEB;}
	.st2{fill:#FFFFFF;}
	.st3{fill:#F290BB;}
	.st4{fill:#FCD4BF;}
	.st5{fill:#414883;}
	.st6{fill:#353B6E;}
	.st7{fill:#947EB9;}
</style>
<g id="Comparing_prices" transform="translate(-187.068 -604.56)">
	<g id="Background_3_">
		<path id="Path_177" class="st0" d="M236.15,666.25c3.98,0.15,19.11,0.73,31.16-10.27c0.94-0.86,13.61-12.79,12.46-29.14
			c-0.26-3.64-0.63-8.96-4.38-11.96c-5.22-4.18-15.36,0.75-26.95,6.06c-8.75,4.01-9.88,5.78-15.16,6.4
			c-8.24,0.97-15.41-2.17-17.68-3.2c-8.74-3.95-9.77-8.44-16.34-8.93c-0.35-0.03-7.87-0.49-10.78,3.87
			c-3.44,5.16,1.71,13.82,4.21,18.02C195.46,641.75,209.43,665.23,236.15,666.25z"/>
	</g>
	<g id="Plant_3_">
		<path id="Path_179" class="st1" d="M264.22,642.78c0.91,0.63,3.65-0.55,4.93-0.26c0.37,0.08,0.76,0.21,1.02,0.49
			c0.62,0.69,0.04,1.88-0.82,2.22c-0.86,0.34-1.83,0.14-2.75,0.01c-1.18-0.16-2.42-0.18-3.5,0.33c-0.16,0.08-0.33,0.17-0.42,0.32
			c-0.24,0.39,0.1,0.88,0.47,1.14c1.2,0.85,2.79,0.82,4.23,1.1c0.33,0.06,0.69,0.17,0.86,0.46c0.17,0.28,0.1,0.64-0.03,0.94
			c-0.49,1.1-1.73,1.71-2.93,1.81c-1.2,0.1-2.39-0.23-3.56-0.51c-1.17-0.28-2.39-0.53-3.57-0.28c-0.54,0.11-1.17,0.66-0.84,1.1
			c0.1,0.14,0.27,0.2,0.43,0.26c1.94,0.64,4.11,0.27,6.02,0.98c0.93,0.35,1.85,1.13,1.78,2.11c-0.05,0.64-0.54,1.19-1.11,1.48
			c-0.58,0.29-1.23,0.37-1.88,0.42c-1.97,0.16-3.95,0.1-5.9-0.16c-1.58-0.22-3.46-0.48-4.55,0.7c-0.25,0.27-0.43,0.61-0.43,0.97
			c0.01,0.58,0.51,1.05,1.07,1.23c0.55,0.18,1.15,0.13,1.73,0.1c1.22-0.06,2.44,0,3.65,0.17c0.6,0.09,1.25,0.23,1.63,0.7
			c0.51,0.64,0.28,1.66-0.32,2.21c-0.6,0.56-1.46,0.74-2.28,0.79c-2.68,0.15-5.29-0.94-7.97-1.05c-0.59-0.03-1.24,0.02-1.7,0.4
			c-0.46,0.38-0.56,1.21-0.06,1.53c0.19,0.12,0.43,0.15,0.65,0.17l4.9,0.5c0.57,0.06,1.19,0.14,1.61,0.54
			c0.65,0.63,0.44,1.79-0.21,2.42c-0.65,0.62-1.6,0.83-2.5,0.93c-1.52,0.18-9-0.23-10.54-0.27l-0.93-0.81
			c-0.26-1.51-1.73-8.86-1.77-10.39c-0.03-0.9,0.04-1.87,0.57-2.6s1.65-1.11,2.36-0.55c0.46,0.35,0.62,0.95,0.76,1.51
			c0.4,1.59,0.8,3.19,1.2,4.78c0.06,0.22,0.11,0.45,0.26,0.62c0.39,0.45,1.2,0.23,1.51-0.28c0.31-0.51,0.26-1.15,0.15-1.74
			c-0.49-2.64-1.95-5.06-2.18-7.74c-0.07-0.82-0.01-1.69,0.46-2.37c0.47-0.68,1.44-1.05,2.15-0.63c0.52,0.31,0.76,0.93,0.93,1.52
			c0.34,1.17,0.57,2.37,0.69,3.58c0.06,0.58,0.09,1.17,0.34,1.7c0.25,0.52,0.8,0.95,1.37,0.88c0.36-0.05,0.67-0.28,0.9-0.56
			c1-1.24,0.48-3.06,0.04-4.6c-0.54-1.9-0.88-3.85-1-5.82c-0.04-0.65-0.06-1.31,0.15-1.92c0.21-0.61,0.68-1.17,1.31-1.31
			c0.96-0.22,1.87,0.59,2.34,1.46c0.98,1.79,0.92,3.99,1.83,5.82c0.08,0.15,0.17,0.31,0.32,0.39c0.48,0.27,0.93-0.44,0.97-0.99
			c0.07-1.2-0.34-2.38-0.79-3.5c-0.45-1.12-0.93-2.25-1.01-3.46c-0.08-1.2,0.35-2.52,1.37-3.16c0.28-0.17,0.63-0.29,0.93-0.16
			c0.31,0.13,0.47,0.47,0.58,0.79c0.49,1.39,0.68,2.96,1.69,4.03c0.31,0.33,0.84,0.6,1.19,0.31c0.14-0.11,0.21-0.29,0.26-0.46
			c0.34-1.14,0.15-2.37-0.18-3.51c-0.26-0.89-0.6-1.82-0.38-2.72s1.32-1.65,2.09-1.13c0.32,0.21,0.5,0.58,0.63,0.94
			c0.47,1.22-0.66,4.79,0.45,4.92c0.22,0.03,1.29-0.65,1.31-2.38c0.02-1.73,1.15-3.91,2.82-2.39c1.67,1.52-0.56,2.33-1.59,3.24
			C264.39,641,263.81,642.5,264.22,642.78z"/>
		<path id="Path_180" class="st2" d="M241.07,668.19l-0.09-0.07c0.11-0.13,10.7-13.14,16.17-18.31c3.93-3.71,6.37-7.97,6.39-8.01
			l0.1,0.06c-0.02,0.04-2.46,4.32-6.41,8.04C251.76,655.06,241.18,668.06,241.07,668.19z"/>
	</g>
	<g id="Plants_2_" transform="translate(523.796 1298.836)">
		<g id="_4" transform="translate(-523.796 -1298.836)">
			<path id="Path_178" class="st3" d="M237.1,668.39c0,0-7.03-21.72,17.07-40.55C254.17,627.85,258.53,655.8,237.1,668.39"/>
			
				<rect id="Rectangle_44" x="225.34" y="647.7" transform="matrix(0.3841 -0.9233 0.9233 0.3841 -446.6796 625.8828)" class="st2" width="40.91" height="0.11"/>
		</g>
		<g id="_3">
			<path id="Path_181" class="st1" d="M-323.15-639.53c0,0,15.46,16.9,34.27,9.73C-288.88-629.81-299.05-645.24-323.15-639.53z"/>
			
				<rect id="Rectangle_45" x="-306.21" y="-650.84" transform="matrix(0.2701 -0.9628 0.9628 0.2701 387.777 -758.1526)" class="st2" width="0.11" height="32.01"/>
		</g>
		<g id="_2">
			<path id="Path_182" class="st1" d="M-305.64-670.85c0,0-1.44,30.92,16.85,41.02C-288.79-629.82-284.72-654.45-305.64-670.85z"/>
			
				<rect id="Rectangle_46" x="-296.97" y="-669.73" transform="matrix(0.9273 -0.3743 0.3743 0.9273 221.6956 -158.3896)" class="st2" width="0.11" height="39.59"/>
		</g>
		<g id="_1">
			<path id="Path_187" class="st3" d="M-294.3-629.09c0,0-0.41-19.64-24.74-28.26C-319.03-657.36-314.78-633.39-294.3-629.09"/>
			
				<rect id="Rectangle_47" x="-307.19" y="-660.66" transform="matrix(0.7563 -0.6542 0.6542 0.7563 346.2145 -357.7993)" class="st2" width="0.11" height="34.14"/>
		</g>
	</g>
	<g id="Person_3_">
		<path id="Path_183" class="st3" d="M232.95,627.85c-1.02,0.09-1.11,1.04-2.3,1.35c-0.9,0.23-2.2,0.04-2.98-0.9
			c-0.75-0.91-0.82-2.27-0.28-3.14c0.66-1.09,1.76-0.6,2.98-1.8c0.76-0.75,0.5-1.11,1.57-3.14c0.91-1.74,1.37-2.61,2.25-3.09
			c1.52-0.83,3.42-0.07,4.27,0.34c0.25-1.47,1.21-2.64,2.41-2.92c2.01-0.47,4.31,1.62,3.99,3.37c-0.19,1.02-1.25,1.86-2.58,2.19
			c0.4,0.88,0.61,1.84,0.62,2.81c0,1.76-0.72,2.41-0.28,3.37c0.56,1.21,2.07,0.95,2.41,2.08c0.27,0.87-0.31,2.11-1.12,2.41
			c-0.97,0.36-1.59-0.86-3.2-0.73c-1.08,0.09-1.11,0.66-2.08,0.67c-0.69,0.01-1.02-0.28-3.26-1.68
			C233.63,627.93,233.36,627.81,232.95,627.85z"/>
		<path id="Path_184" class="st4" d="M232.95,620.61c0,0-3.76,7.92,1.29,8.59l-0.34,3.59c0,0,0.28,2.36,2.41,2.36
			c2.13,0,2.81-2.02,2.81-2.02l-0.34-5.78c0,0,2.98-3.2,0.06-2.86c0,0,0.11-1.57-2.25-1.52
			C234.24,623.02,232.95,620.61,232.95,620.61z"/>
		<path id="Path_185" class="st4" d="M214.65,636.83c0,0-0.79-1.68-1.24-2.13c-0.45-0.45-1.57,0.9-3.76,0.84
			c-2.19-0.06-4.32-0.67-4.55-0.95c-0.22-0.28-0.11,1.85,2.81,2.86c2.92,1.01,3.99-0.56,4.77,1.29
			C213.47,640.59,214.65,636.83,214.65,636.83z"/>
		<path id="Path_186" class="st4" d="M258.08,636.83c0,0,0.79-1.68,1.24-2.13c0.45-0.45,1.57,0.9,3.76,0.84
			c2.19-0.06,4.32-0.67,4.55-0.95c0.22-0.28,0.11,1.85-2.81,2.86c-2.92,1.01-3.99-0.56-4.77,1.29
			C259.26,640.59,258.08,636.83,258.08,636.83z"/>
		<g id="Group_116" transform="translate(658.504 1117.806)">
			<path id="Path_188" class="st5" d="M-431-484.18c-1.18,1.52-6.23,11.96-6.23,11.96l-6.51-9.09l-3.03,2.3
				c0,0,8.25,13.7,10.11,13.7c1.85,0,6.4-8.14,6.4-8.14C-427.91-476.26-426.62-484.79-431-484.18z"/>
			<path id="Path_189" class="st5" d="M-413.34-484.18c1.18,1.52,6.23,11.96,6.23,11.96l6.51-9.09l3.03,2.3c0,0-8.25,13.7-10.1,13.7
				s-6.4-8.14-6.4-8.14C-416.42-476.26-417.72-484.79-413.34-484.18z"/>
			<path id="Path_190" class="st6" d="M-415.59-463.74c0.16-0.87,1.19-6.6,1.78-11.68c0.3-2.7,0.47-5.42,0.51-8.13
				c0-0.84-0.68-1.52-1.52-1.52c0,0-0.67-0.11-1.72-0.23c-1.47-0.17-3.7-0.38-5.91-0.38c-1.72,0-3.44,0.14-4.76,0.29
				c-1.41,0.16-2.37,0.33-2.37,0.33c-0.84,0-1.52,0.68-1.52,1.52c0.04,2.72,0.26,5.44,0.67,8.13c0.77,4.89,2.12,10.4,2.37,11.4
				c-5.07,6.45-4,15.49-4,15.49c0.45,3.65,20.27,2.08,20.15,0.17C-412-449.98-411.29-459.47-415.59-463.74z"/>
			<g id="Group_115" transform="translate(479.608 139.976)">
				<circle id="Ellipse_11" class="st3" cx="-901.12" cy="-617.98" r="0.45"/>
				<circle id="Ellipse_12" class="st3" cx="-901.12" cy="-616.4" r="0.45"/>
				<circle id="Ellipse_13" class="st3" cx="-901.12" cy="-614.83" r="0.45"/>
				<circle id="Ellipse_14" class="st3" cx="-901.12" cy="-613.26" r="0.45"/>
			</g>
		</g>
		<path id="Path_191" class="st4" d="M241.95,632.5c-0.82,0.63-4.96,6.3-4.96,6.3s-3.99-5.39-5.71-6.39
			c1.32-0.15,3.15-0.46,4.87-0.46C238.37,631.95,240.48,632.32,241.95,632.5z"/>
	</g>
	<g id="Object_3_" transform="translate(459.594 869.379)">
		<path id="Path_192" class="st7" d="M-246.89-239.07c0.03-0.03,0.07-0.07,0.1-0.11c0.04-0.04,0.07-0.08,0.11-0.12
			c0.03-0.04,0.06-0.07,0.09-0.11c0.04-0.04,0.07-0.08,0.1-0.13c0.03-0.04,0.06-0.08,0.09-0.11c0.03-0.04,0.07-0.09,0.1-0.13
			c0.03-0.04,0.05-0.08,0.08-0.12c0.03-0.05,0.06-0.09,0.09-0.14c0.03-0.04,0.05-0.08,0.08-0.12c0.03-0.05,0.06-0.09,0.09-0.14
			c0.02-0.04,0.05-0.08,0.07-0.12c0.03-0.05,0.05-0.1,0.08-0.15c0.02-0.04,0.04-0.08,0.06-0.13c0.02-0.05,0.05-0.1,0.07-0.15
			c0.02-0.04,0.04-0.09,0.06-0.13c0.02-0.05,0.04-0.1,0.07-0.16c0.02-0.04,0.04-0.09,0.05-0.13c0.02-0.05,0.04-0.11,0.06-0.16
			c0.02-0.04,0.03-0.09,0.05-0.13c0.02-0.05,0.03-0.11,0.05-0.16c0.01-0.04,0.03-0.09,0.04-0.14c0.02-0.06,0.03-0.11,0.04-0.17
			c0.01-0.05,0.02-0.09,0.03-0.14c0.01-0.06,0.02-0.11,0.03-0.17c0.01-0.05,0.02-0.09,0.03-0.14c0.01-0.06,0.02-0.12,0.03-0.17
			c0.01-0.05,0.01-0.09,0.02-0.14c0.01-0.06,0.01-0.12,0.02-0.18c0-0.05,0.01-0.09,0.01-0.14c0-0.06,0.01-0.12,0.01-0.18
			c0-0.05,0.01-0.09,0.01-0.14c0-0.06,0-0.13,0-0.19c0-0.04,0-0.09,0-0.13c0-0.07-0.01-0.13-0.01-0.2c0-0.04,0-0.08-0.01-0.12
			c-0.01-0.07-0.01-0.15-0.02-0.22c0-0.03-0.01-0.07-0.01-0.1c-0.01-0.11-0.03-0.22-0.05-0.33c-0.02-0.11-0.04-0.22-0.07-0.32
			c-0.01-0.04-0.02-0.08-0.03-0.12c-0.02-0.07-0.03-0.14-0.05-0.2c-0.01-0.05-0.03-0.09-0.04-0.13c-0.02-0.06-0.04-0.12-0.05-0.18
			c-0.02-0.05-0.03-0.09-0.05-0.14c-0.02-0.05-0.04-0.11-0.06-0.16c-0.02-0.05-0.04-0.09-0.06-0.14c-0.02-0.05-0.04-0.1-0.06-0.15
			c-0.02-0.05-0.04-0.09-0.07-0.14c-0.02-0.05-0.05-0.1-0.07-0.15c-0.02-0.05-0.05-0.09-0.07-0.14c-0.02-0.05-0.05-0.09-0.08-0.14
			s-0.05-0.09-0.08-0.14c-0.03-0.05-0.05-0.09-0.08-0.13c-0.03-0.04-0.06-0.09-0.09-0.13c-0.03-0.04-0.06-0.08-0.09-0.13
			c-0.03-0.04-0.06-0.09-0.09-0.13c-0.03-0.04-0.06-0.08-0.09-0.12c-0.03-0.04-0.07-0.08-0.1-0.12c-0.03-0.04-0.06-0.08-0.1-0.12
			c-0.03-0.04-0.07-0.08-0.11-0.12c-0.03-0.04-0.07-0.07-0.1-0.11c-0.04-0.04-0.07-0.08-0.11-0.12c-0.03-0.04-0.07-0.07-0.11-0.1
			c-0.04-0.04-0.08-0.07-0.12-0.11c-0.04-0.03-0.07-0.07-0.11-0.1c-0.04-0.04-0.08-0.07-0.12-0.1c-0.04-0.03-0.08-0.06-0.11-0.09
			c-0.04-0.03-0.08-0.07-0.13-0.1c-0.04-0.03-0.08-0.06-0.12-0.09c-0.04-0.03-0.09-0.06-0.13-0.09c-0.04-0.03-0.08-0.05-0.12-0.08
			c-0.05-0.03-0.09-0.06-0.14-0.09c-0.04-0.03-0.08-0.05-0.13-0.08c-0.05-0.03-0.09-0.05-0.14-0.08c-0.04-0.02-0.09-0.05-0.13-0.07
			c-0.05-0.03-0.1-0.05-0.14-0.07c-0.04-0.02-0.09-0.04-0.13-0.06c-0.05-0.02-0.1-0.05-0.15-0.07c-0.05-0.02-0.09-0.04-0.14-0.06
			c-0.05-0.02-0.1-0.04-0.15-0.06c-0.05-0.02-0.09-0.03-0.14-0.05c-0.05-0.02-0.1-0.04-0.15-0.05c-0.05-0.02-0.09-0.03-0.14-0.04
			c-0.05-0.02-0.1-0.03-0.16-0.05c-0.05-0.01-0.1-0.02-0.14-0.04c-0.05-0.01-0.1-0.03-0.16-0.04c-0.05-0.01-0.1-0.02-0.15-0.03
			c-0.05-0.01-0.11-0.02-0.16-0.03c-0.05-0.01-0.1-0.02-0.15-0.02c-0.05-0.01-0.11-0.02-0.16-0.02c-0.04-0.01-0.09-0.01-0.13-0.01
			c-0.11-0.01-0.23-0.02-0.34-0.03c-0.05,0-0.1-0.01-0.16-0.01c-0.05,0-0.11,0-0.16,0c-0.05,0-0.1,0-0.16,0
			c-0.05,0-0.11,0-0.16,0.01c-0.05,0-0.11,0-0.16,0.01c-0.06,0-0.11,0.01-0.17,0.02c-0.05,0-0.09,0.01-0.14,0.01v0
			c-0.13,0.01-0.26,0.03-0.39,0.05c-3.56,0.62-5.93,4.01-5.31,7.57c0.62,3.56,4.01,5.93,7.57,5.31l0,0
			c0.13-0.02,0.26-0.05,0.38-0.08v0c0.04-0.01,0.08-0.02,0.12-0.03c0.06-0.02,0.12-0.03,0.18-0.05c0.05-0.01,0.09-0.03,0.14-0.04
			c0.06-0.02,0.12-0.04,0.17-0.05c0.04-0.02,0.09-0.03,0.13-0.05c0.06-0.02,0.11-0.04,0.17-0.06c0.04-0.02,0.08-0.03,0.12-0.05
			c0.12-0.05,0.24-0.1,0.35-0.16c0.03-0.02,0.07-0.03,0.1-0.05c0.05-0.02,0.09-0.05,0.14-0.07c0.05-0.03,0.1-0.05,0.14-0.08
			c0.04-0.02,0.09-0.05,0.13-0.08c0.05-0.03,0.09-0.06,0.14-0.09c0.04-0.03,0.08-0.06,0.12-0.08c0.05-0.03,0.09-0.06,0.14-0.09
			c0.04-0.03,0.08-0.06,0.12-0.09c0.04-0.03,0.09-0.07,0.13-0.1c0.04-0.03,0.08-0.06,0.11-0.09c0.04-0.03,0.08-0.07,0.13-0.11
			c0.04-0.03,0.07-0.06,0.11-0.1c0.04-0.04,0.08-0.07,0.12-0.11c0.03-0.03,0.07-0.07,0.1-0.1
			C-246.96-238.99-246.92-239.03-246.89-239.07z"/>
		<path id="Path_193" class="st1" d="M-256.51-242.72c-0.47-2.7,1.33-5.28,4.04-5.75c2.7-0.47,5.28,1.33,5.75,4.04
			c0.47,2.7-1.33,5.28-4.04,5.75c0,0,0,0,0,0C-253.46-238.21-256.03-240.02-256.51-242.72z"/>
	</g>
	<g id="Object-2_3_" transform="translate(1529.49 895.421)">
		<path id="Path_195" class="st7" d="M-1261.43-263.76c0.03-0.03,0.07-0.07,0.1-0.11c0.04-0.04,0.07-0.08,0.11-0.12
			c0.03-0.04,0.06-0.07,0.09-0.11c0.04-0.04,0.07-0.08,0.1-0.13c0.03-0.04,0.06-0.08,0.09-0.11c0.03-0.04,0.07-0.09,0.1-0.13
			c0.03-0.04,0.05-0.08,0.08-0.12c0.03-0.05,0.06-0.09,0.09-0.14c0.03-0.04,0.05-0.08,0.08-0.12c0.03-0.05,0.06-0.09,0.09-0.14
			c0.02-0.04,0.05-0.08,0.07-0.12c0.03-0.05,0.05-0.1,0.08-0.15c0.02-0.04,0.04-0.08,0.06-0.13c0.02-0.05,0.05-0.1,0.07-0.15
			c0.02-0.04,0.04-0.09,0.06-0.13c0.02-0.05,0.04-0.1,0.07-0.16c0.02-0.04,0.04-0.09,0.05-0.13c0.02-0.05,0.04-0.11,0.06-0.16
			c0.02-0.04,0.03-0.09,0.05-0.13c0.02-0.05,0.03-0.11,0.05-0.16c0.01-0.05,0.03-0.09,0.04-0.14c0.02-0.06,0.03-0.11,0.04-0.17
			c0.01-0.05,0.02-0.09,0.03-0.14c0.01-0.06,0.02-0.11,0.03-0.17c0.01-0.05,0.02-0.09,0.03-0.14c0.01-0.06,0.02-0.12,0.03-0.17
			c0.01-0.05,0.01-0.09,0.02-0.14c0.01-0.06,0.01-0.12,0.02-0.18c0-0.05,0.01-0.09,0.01-0.14c0-0.06,0.01-0.12,0.01-0.18
			c0-0.05,0.01-0.09,0.01-0.14c0-0.06,0-0.13,0-0.19c0-0.04,0-0.09,0-0.13c0-0.07-0.01-0.13-0.01-0.2c0-0.04,0-0.08-0.01-0.12
			c-0.01-0.07-0.01-0.15-0.02-0.22c0-0.03-0.01-0.07-0.01-0.1c-0.01-0.11-0.03-0.22-0.05-0.33s-0.04-0.22-0.07-0.32
			c-0.01-0.04-0.02-0.08-0.03-0.12c-0.02-0.07-0.03-0.14-0.05-0.2c-0.01-0.05-0.03-0.09-0.04-0.13c-0.02-0.06-0.04-0.12-0.05-0.18
			c-0.02-0.05-0.03-0.09-0.05-0.14c-0.02-0.05-0.04-0.11-0.06-0.16c-0.02-0.05-0.04-0.09-0.06-0.14c-0.02-0.05-0.04-0.1-0.06-0.15
			c-0.02-0.05-0.04-0.09-0.07-0.14c-0.02-0.05-0.05-0.1-0.07-0.15c-0.02-0.05-0.05-0.09-0.07-0.14s-0.05-0.09-0.08-0.14
			c-0.03-0.05-0.05-0.09-0.08-0.14c-0.03-0.05-0.05-0.09-0.08-0.13c-0.03-0.04-0.06-0.09-0.09-0.13c-0.03-0.04-0.06-0.08-0.09-0.13
			c-0.03-0.04-0.06-0.09-0.09-0.13c-0.03-0.04-0.06-0.08-0.09-0.12c-0.03-0.04-0.07-0.08-0.1-0.12c-0.03-0.04-0.06-0.08-0.1-0.12
			c-0.03-0.04-0.07-0.08-0.11-0.12c-0.03-0.04-0.07-0.07-0.1-0.11c-0.04-0.04-0.07-0.08-0.11-0.12c-0.03-0.04-0.07-0.07-0.11-0.1
			c-0.04-0.04-0.08-0.07-0.12-0.11c-0.04-0.03-0.07-0.07-0.11-0.1c-0.04-0.04-0.08-0.07-0.12-0.1c-0.04-0.03-0.08-0.06-0.11-0.09
			c-0.04-0.03-0.08-0.07-0.13-0.1c-0.04-0.03-0.08-0.06-0.12-0.09c-0.04-0.03-0.09-0.06-0.13-0.09c-0.04-0.03-0.08-0.05-0.12-0.08
			c-0.04-0.03-0.09-0.06-0.14-0.09c-0.04-0.03-0.08-0.05-0.13-0.08c-0.05-0.03-0.09-0.05-0.14-0.08c-0.04-0.02-0.09-0.05-0.13-0.07
			c-0.05-0.03-0.1-0.05-0.14-0.07c-0.04-0.02-0.09-0.04-0.13-0.06c-0.05-0.02-0.1-0.05-0.15-0.07c-0.05-0.02-0.09-0.04-0.14-0.06
			c-0.05-0.02-0.1-0.04-0.15-0.06c-0.05-0.02-0.09-0.03-0.14-0.05c-0.05-0.02-0.1-0.04-0.15-0.05c-0.05-0.02-0.09-0.03-0.14-0.04
			c-0.05-0.02-0.1-0.03-0.16-0.05c-0.05-0.01-0.1-0.02-0.14-0.04c-0.05-0.01-0.1-0.03-0.16-0.04c-0.05-0.01-0.1-0.02-0.15-0.03
			c-0.05-0.01-0.11-0.02-0.16-0.03c-0.05-0.01-0.1-0.02-0.15-0.02c-0.05-0.01-0.11-0.02-0.16-0.02c-0.04-0.01-0.09-0.01-0.13-0.01
			c-0.11-0.01-0.23-0.02-0.34-0.03c-0.05,0-0.1-0.01-0.16-0.01c-0.05,0-0.11,0-0.16,0c-0.05,0-0.1,0-0.16,0
			c-0.05,0-0.11,0-0.17,0.01c-0.05,0-0.11,0-0.16,0.01c-0.06,0-0.11,0.01-0.17,0.02c-0.05,0-0.09,0.01-0.14,0.01v0
			c-0.13,0.01-0.26,0.03-0.39,0.05c-3.56,0.62-5.93,4.01-5.31,7.57c0.62,3.56,4.01,5.93,7.57,5.31l0,0
			c0.13-0.02,0.26-0.05,0.38-0.08v0c0.04-0.01,0.08-0.02,0.12-0.03c0.06-0.02,0.12-0.03,0.18-0.05c0.05-0.01,0.09-0.03,0.14-0.04
			c0.06-0.02,0.12-0.04,0.17-0.05c0.04-0.02,0.09-0.03,0.13-0.05c0.06-0.02,0.11-0.04,0.17-0.06c0.04-0.02,0.08-0.03,0.12-0.05
			c0.12-0.05,0.24-0.1,0.35-0.16c0.03-0.02,0.07-0.03,0.1-0.05c0.05-0.02,0.09-0.05,0.14-0.07c0.05-0.03,0.1-0.05,0.14-0.08
			c0.04-0.02,0.09-0.05,0.13-0.08c0.05-0.03,0.09-0.06,0.14-0.09c0.04-0.03,0.08-0.06,0.12-0.08c0.05-0.03,0.09-0.06,0.14-0.09
			c0.04-0.03,0.08-0.06,0.12-0.09c0.04-0.03,0.09-0.07,0.13-0.1c0.04-0.03,0.08-0.06,0.11-0.09c0.04-0.03,0.08-0.07,0.13-0.11
			c0.04-0.03,0.07-0.06,0.11-0.1c0.04-0.04,0.08-0.07,0.12-0.11c0.03-0.03,0.07-0.07,0.1-0.1
			C-1261.5-263.68-1261.47-263.72-1261.43-263.76z"/>
		<path id="Path_196" class="st1" d="M-1271.05-267.42c-0.47-2.7,1.33-5.28,4.04-5.75c2.7-0.47,5.28,1.33,5.75,4.04
			s-1.33,5.28-4.04,5.75c0,0,0,0,0,0C-1268-262.91-1270.58-264.71-1271.05-267.42z"/>
	</g>
	<g id="Object-3_2_" transform="translate(1538.533 604.56)">
		<path id="Path_198" class="st6" d="M-1272.43,11.49c0.02-0.03,0.04-0.07,0.07-0.1c0.02-0.04,0.05-0.08,0.07-0.12
			c0.02-0.03,0.04-0.07,0.06-0.1c0.02-0.04,0.05-0.08,0.07-0.12c0.02-0.04,0.04-0.07,0.06-0.11c0.02-0.04,0.04-0.08,0.07-0.13
			c0.02-0.04,0.04-0.07,0.05-0.11c0.02-0.04,0.04-0.09,0.06-0.13c0.02-0.04,0.03-0.08,0.05-0.11c0.02-0.04,0.04-0.09,0.06-0.14
			c0.02-0.04,0.03-0.08,0.05-0.12c0.02-0.05,0.04-0.09,0.05-0.14c0.01-0.04,0.03-0.08,0.04-0.12c0.02-0.05,0.03-0.1,0.05-0.14
			c0.01-0.04,0.03-0.08,0.04-0.12c0.02-0.05,0.03-0.1,0.04-0.15c0.01-0.04,0.02-0.08,0.03-0.12c0.01-0.05,0.03-0.1,0.04-0.15
			c0.01-0.04,0.02-0.08,0.03-0.13c0.01-0.05,0.02-0.1,0.03-0.15c0.01-0.04,0.02-0.09,0.03-0.13c0.01-0.05,0.02-0.11,0.03-0.16
			c0.01-0.04,0.02-0.09,0.02-0.13c0.01-0.05,0.02-0.11,0.02-0.16c0.01-0.04,0.01-0.09,0.02-0.13c0.01-0.05,0.01-0.11,0.02-0.17
			c0-0.04,0.01-0.09,0.01-0.13c0-0.06,0.01-0.11,0.01-0.17c0-0.04,0.01-0.09,0.01-0.13c0-0.06,0-0.12,0.01-0.17
			c0-0.04,0-0.09,0-0.13c0-0.06,0-0.12,0-0.18c0-0.04,0-0.08,0-0.12c0-0.06,0-0.13-0.01-0.19c0-0.04,0-0.08,0-0.12
			c0-0.07-0.01-0.14-0.01-0.21c0-0.03,0-0.07-0.01-0.1c-0.01-0.1-0.02-0.21-0.03-0.31c-0.01-0.1-0.03-0.21-0.04-0.31
			c-0.01-0.04-0.01-0.07-0.02-0.11c-0.01-0.06-0.02-0.13-0.03-0.19c-0.01-0.04-0.02-0.08-0.03-0.13c-0.01-0.06-0.02-0.11-0.04-0.17
			c-0.01-0.04-0.02-0.09-0.03-0.13c-0.01-0.05-0.03-0.1-0.04-0.15c-0.01-0.05-0.03-0.09-0.04-0.13c-0.01-0.05-0.03-0.1-0.04-0.15
			c-0.01-0.04-0.03-0.09-0.04-0.13c-0.02-0.05-0.03-0.09-0.05-0.14c-0.02-0.04-0.03-0.09-0.05-0.13c-0.02-0.04-0.03-0.09-0.05-0.13
			s-0.04-0.09-0.05-0.13c-0.02-0.04-0.04-0.08-0.05-0.13c-0.02-0.04-0.04-0.08-0.06-0.13c-0.02-0.04-0.04-0.08-0.06-0.12
			c-0.02-0.04-0.04-0.08-0.06-0.12c-0.02-0.04-0.04-0.08-0.06-0.11c-0.02-0.04-0.04-0.08-0.07-0.12c-0.02-0.04-0.04-0.07-0.06-0.11
			c-0.02-0.04-0.05-0.08-0.07-0.11c-0.02-0.04-0.04-0.07-0.07-0.1c-0.02-0.04-0.05-0.07-0.07-0.11c-0.02-0.03-0.05-0.07-0.07-0.1
			c-0.03-0.04-0.05-0.07-0.08-0.1c-0.02-0.03-0.05-0.06-0.07-0.09c-0.03-0.03-0.05-0.07-0.08-0.1c-0.03-0.03-0.05-0.06-0.08-0.09
			c-0.03-0.03-0.06-0.06-0.08-0.09c-0.03-0.03-0.05-0.06-0.08-0.08c-0.03-0.03-0.06-0.06-0.09-0.09c-0.03-0.03-0.05-0.05-0.08-0.08
			c-0.03-0.03-0.06-0.06-0.09-0.08c-0.03-0.02-0.06-0.05-0.08-0.07c-0.03-0.03-0.06-0.05-0.09-0.08c-0.03-0.02-0.06-0.04-0.09-0.07
			c-0.03-0.02-0.06-0.05-0.1-0.07c-0.03-0.02-0.06-0.04-0.09-0.06c-0.03-0.02-0.07-0.04-0.1-0.06c-0.03-0.02-0.06-0.04-0.09-0.05
			c-0.03-0.02-0.07-0.04-0.1-0.06c-0.03-0.02-0.06-0.03-0.09-0.05c-0.03-0.02-0.07-0.04-0.1-0.05c-0.03-0.01-0.06-0.03-0.1-0.04
			c-0.03-0.01-0.07-0.03-0.1-0.04c-0.03-0.01-0.06-0.02-0.1-0.04c-0.04-0.01-0.07-0.03-0.11-0.04c-0.03-0.01-0.07-0.02-0.1-0.03
			c-0.04-0.01-0.07-0.02-0.11-0.03c-0.03-0.01-0.07-0.01-0.1-0.02c-0.04-0.01-0.07-0.02-0.11-0.02c-0.03-0.01-0.06-0.01-0.09-0.01
			c-0.08-0.01-0.15-0.02-0.23-0.03c-0.03,0-0.07-0.01-0.1-0.01c-0.04,0-0.07,0-0.11,0c-0.04,0-0.07,0-0.11,0
			c-0.04,0-0.07,0-0.11,0.01c-0.04,0-0.07,0-0.11,0.01c-0.04,0-0.07,0.01-0.11,0.01c-0.03,0-0.06,0.01-0.09,0.01v0
			c-0.09,0.01-0.17,0.03-0.26,0.05c-2.38,0.59-3.97,3.81-3.55,7.18s2.68,5.63,5.06,5.04c0.09-0.02,0.17-0.05,0.26-0.08v0
			c0.03-0.01,0.05-0.02,0.08-0.03c0.04-0.01,0.08-0.03,0.12-0.04c0.03-0.01,0.06-0.03,0.09-0.04c0.04-0.02,0.08-0.03,0.12-0.05
			c0.03-0.01,0.06-0.03,0.09-0.05c0.04-0.02,0.08-0.04,0.11-0.06c0.03-0.02,0.05-0.03,0.08-0.05c0.08-0.05,0.16-0.1,0.24-0.15
			c0.02-0.02,0.04-0.03,0.07-0.04c0.03-0.02,0.06-0.05,0.09-0.07c0.03-0.02,0.06-0.05,0.09-0.07c0.03-0.02,0.06-0.05,0.09-0.07
			c0.03-0.03,0.06-0.05,0.09-0.08c0.03-0.03,0.05-0.05,0.08-0.08c0.03-0.03,0.06-0.06,0.09-0.09c0.03-0.03,0.05-0.06,0.08-0.08
			c0.03-0.03,0.06-0.06,0.09-0.09c0.03-0.03,0.05-0.06,0.08-0.09c0.03-0.03,0.06-0.07,0.08-0.1c0.02-0.03,0.05-0.06,0.07-0.09
			c0.03-0.03,0.05-0.07,0.08-0.11c0.02-0.03,0.05-0.06,0.07-0.1C-1272.48,11.56-1272.46,11.53-1272.43,11.49z"/>
		<path id="Path_199" class="st7" d="M-1273.73,11.49c0.02-0.03,0.04-0.07,0.07-0.1c0.02-0.04,0.05-0.08,0.07-0.12
			c0.02-0.03,0.04-0.07,0.06-0.1c0.02-0.04,0.05-0.08,0.07-0.12c0.02-0.04,0.04-0.07,0.06-0.11c0.02-0.04,0.04-0.08,0.07-0.13
			c0.02-0.04,0.04-0.07,0.05-0.11c0.02-0.04,0.04-0.09,0.06-0.13c0.02-0.04,0.03-0.08,0.05-0.11c0.02-0.04,0.04-0.09,0.06-0.14
			c0.02-0.04,0.03-0.08,0.05-0.12c0.02-0.05,0.04-0.09,0.05-0.14c0.01-0.04,0.03-0.08,0.04-0.12c0.02-0.05,0.03-0.1,0.05-0.14
			c0.01-0.04,0.03-0.08,0.04-0.12c0.02-0.05,0.03-0.1,0.04-0.15c0.01-0.04,0.02-0.08,0.03-0.12c0.01-0.05,0.03-0.1,0.04-0.15
			c0.01-0.04,0.02-0.08,0.03-0.13c0.01-0.05,0.02-0.1,0.03-0.15c0.01-0.04,0.02-0.09,0.03-0.13c0.01-0.05,0.02-0.11,0.03-0.16
			c0.01-0.04,0.02-0.09,0.02-0.13c0.01-0.05,0.02-0.11,0.02-0.16c0.01-0.04,0.01-0.09,0.02-0.13c0.01-0.05,0.01-0.11,0.02-0.17
			c0-0.04,0.01-0.09,0.01-0.13c0-0.06,0.01-0.11,0.01-0.17c0-0.04,0.01-0.09,0.01-0.13c0-0.06,0-0.12,0.01-0.17
			c0-0.04,0-0.09,0-0.13c0-0.06,0-0.12,0-0.18c0-0.04,0-0.08,0-0.12c0-0.06,0-0.13-0.01-0.19c0-0.04,0-0.08,0-0.12
			c0-0.07-0.01-0.14-0.01-0.21c0-0.03,0-0.07-0.01-0.1c-0.01-0.1-0.02-0.21-0.03-0.31c-0.01-0.1-0.03-0.21-0.04-0.31
			c-0.01-0.04-0.01-0.07-0.02-0.11c-0.01-0.06-0.02-0.13-0.03-0.19c-0.01-0.04-0.02-0.08-0.03-0.13c-0.01-0.06-0.02-0.11-0.04-0.17
			c-0.01-0.04-0.02-0.09-0.03-0.13c-0.01-0.05-0.03-0.1-0.04-0.15c-0.01-0.05-0.03-0.09-0.04-0.13c-0.01-0.05-0.03-0.1-0.04-0.15
			c-0.01-0.04-0.03-0.09-0.04-0.13c-0.02-0.05-0.03-0.09-0.05-0.14c-0.02-0.04-0.03-0.09-0.05-0.13s-0.03-0.09-0.05-0.13
			s-0.04-0.09-0.05-0.13c-0.02-0.04-0.04-0.08-0.05-0.13c-0.02-0.04-0.04-0.08-0.06-0.13c-0.02-0.04-0.04-0.08-0.06-0.12
			c-0.02-0.04-0.04-0.08-0.06-0.12c-0.02-0.04-0.04-0.08-0.06-0.11c-0.02-0.04-0.04-0.08-0.07-0.12c-0.02-0.04-0.04-0.07-0.06-0.11
			c-0.02-0.04-0.05-0.08-0.07-0.11c-0.02-0.04-0.04-0.07-0.07-0.1c-0.02-0.04-0.05-0.07-0.07-0.11c-0.02-0.03-0.05-0.07-0.07-0.1
			c-0.03-0.04-0.05-0.07-0.08-0.1c-0.02-0.03-0.05-0.06-0.07-0.09c-0.03-0.03-0.05-0.07-0.08-0.1c-0.03-0.03-0.05-0.06-0.08-0.09
			c-0.03-0.03-0.06-0.06-0.08-0.09c-0.03-0.03-0.05-0.06-0.08-0.08c-0.03-0.03-0.06-0.06-0.09-0.09c-0.03-0.03-0.05-0.05-0.08-0.08
			c-0.03-0.03-0.06-0.06-0.09-0.08c-0.03-0.02-0.06-0.05-0.08-0.07c-0.03-0.03-0.06-0.05-0.09-0.08c-0.03-0.02-0.06-0.04-0.09-0.07
			c-0.03-0.02-0.06-0.05-0.1-0.07c-0.03-0.02-0.06-0.04-0.09-0.06c-0.03-0.02-0.07-0.04-0.1-0.06c-0.03-0.02-0.06-0.04-0.09-0.05
			c-0.03-0.02-0.07-0.04-0.1-0.06c-0.03-0.02-0.06-0.03-0.09-0.05c-0.03-0.02-0.07-0.04-0.1-0.05c-0.03-0.01-0.06-0.03-0.1-0.04
			c-0.03-0.01-0.07-0.03-0.1-0.04c-0.03-0.01-0.06-0.02-0.1-0.04c-0.04-0.01-0.07-0.03-0.11-0.04c-0.03-0.01-0.07-0.02-0.1-0.03
			c-0.04-0.01-0.07-0.02-0.11-0.03c-0.03-0.01-0.07-0.01-0.1-0.02c-0.04-0.01-0.07-0.02-0.11-0.02c-0.03-0.01-0.06-0.01-0.09-0.01
			c-0.08-0.01-0.15-0.02-0.23-0.03c-0.03,0-0.07-0.01-0.1-0.01c-0.04,0-0.07,0-0.11,0c-0.04,0-0.07,0-0.11,0
			c-0.04,0-0.07,0-0.11,0.01c-0.04,0-0.07,0-0.11,0.01c-0.04,0-0.07,0.01-0.11,0.01c-0.03,0-0.06,0.01-0.09,0.01v0
			c-0.09,0.01-0.17,0.03-0.26,0.05c-2.38,0.59-3.97,3.81-3.55,7.18s2.68,5.63,5.06,5.04c0.09-0.02,0.17-0.05,0.26-0.08v0
			c0.03-0.01,0.05-0.02,0.08-0.03c0.04-0.01,0.08-0.03,0.12-0.04c0.03-0.01,0.06-0.03,0.09-0.04c0.04-0.02,0.08-0.03,0.12-0.05
			c0.03-0.01,0.06-0.03,0.09-0.05c0.04-0.02,0.08-0.04,0.11-0.06c0.03-0.02,0.05-0.03,0.08-0.05c0.08-0.05,0.16-0.1,0.24-0.15
			c0.02-0.02,0.04-0.03,0.07-0.04c0.03-0.02,0.06-0.05,0.09-0.07c0.03-0.02,0.06-0.05,0.09-0.07c0.03-0.02,0.06-0.05,0.09-0.07
			c0.03-0.03,0.06-0.05,0.09-0.08c0.03-0.03,0.05-0.05,0.08-0.08c0.03-0.03,0.06-0.06,0.09-0.09c0.03-0.03,0.05-0.06,0.08-0.08
			c0.03-0.03,0.06-0.06,0.09-0.09c0.03-0.03,0.05-0.06,0.08-0.09c0.03-0.03,0.06-0.07,0.08-0.1c0.02-0.03,0.05-0.06,0.07-0.09
			c0.03-0.03,0.05-0.07,0.08-0.11c0.02-0.03,0.05-0.06,0.07-0.1C-1273.78,11.56-1273.76,11.53-1273.73,11.49z"/>
		<path id="Path_200" class="st1" d="M-1280.17,8.02c-0.32-2.57,0.89-5.01,2.7-5.46s3.53,1.26,3.85,3.83s-0.89,5.01-2.7,5.46
			C-1278.13,12.3-1279.85,10.59-1280.17,8.02z"/>
	</g>
</g>
</svg>
