<?xml version="1.0" encoding="utf-8"?>
<!-- Generator: Adobe Illustrator 25.2.1, SVG Export Plug-In . SVG Version: 6.00 Build 0)  -->
<svg version="1.1" id="Layer_1" xmlns="http://www.w3.org/2000/svg" xmlns:xlink="http://www.w3.org/1999/xlink" x="0px" y="0px"
	 viewBox="0 0 91 91" style="enable-background:new 0 0 91 91;" xml:space="preserve">
<style type="text/css">
	.st0{fill:#F2DFEC;}
	.st1{fill:#D09DC7;}
	.st2{fill:#FCC10F;}
	.st3{fill:#41164F;}
	.st4{fill:#DA72A5;}
	.st5{fill:#ED2D24;}
	.st6{fill:#FFFFFF;}
	.st7{fill:#CBDDF2;}
	.st8{fill:#E72E25;}
	.st9{fill:#F0615C;}
	.st10{fill:#FDDD61;}
	.st11{fill:#FDF5A9;}
	.st12{fill:#1C0E30;}
	.st13{fill:#F48667;}
	.st14{fill:#592568;}
	.st15{fill:#6E387C;}
	.st16{fill:#EF4943;}
</style>
<g>
	<g>
		<path class="st0" d="M72.14,9.72c-4.33-1.62-8.82-2.04-13.16-1.44c-6.24,0.87-12.56,0.24-18.29-2.17
			c-0.4-0.17-0.82-0.33-1.23-0.48C25.06,0.37,8.69,8.37,2.85,23.5c-5.97,15.47,1.1,32.56,15.73,38.11
			c4.19,1.59,8.55,2.06,12.77,1.55c6.69-0.8,13.39,0.04,19.6,2.43c0.04,0.01,0.07,0.03,0.11,0.04c14.64,5.56,31.28-2.56,37.07-18.11
			C93.85,32.14,86.65,15.15,72.14,9.72"/>
		<path class="st0" d="M39.91,83.48c-18.86,0-34.16,1.64-34.16,3.65s15.29,3.65,34.16,3.65s34.16-1.64,34.16-3.65
			S58.77,83.48,39.91,83.48"/>
		<path class="st1" d="M82.03,25.23c-0.97,0-1.75,0.86-1.75,1.93c0,1.07,0.78,1.93,1.75,1.93c0.97,0,1.75-0.86,1.75-1.93
			C83.77,26.1,82.99,25.23,82.03,25.23"/>
		<path class="st1" d="M79.77,19.93c-0.28,0-0.5,0.25-0.5,0.56c0,0.31,0.23,0.56,0.5,0.56c0.28,0,0.5-0.25,0.5-0.56
			C80.28,20.18,80.05,19.93,79.77,19.93"/>
		<path class="st1" d="M7.98,40.32c-0.96-0.07-1.81,0.74-1.89,1.8c-0.08,1.06,0.64,1.98,1.61,2.05c0.96,0.07,1.81-0.74,1.89-1.8
			C9.67,41.31,8.95,40.39,7.98,40.32"/>
		<path class="st1" d="M6.12,34.87c-0.28-0.02-0.52,0.21-0.54,0.52c-0.02,0.31,0.18,0.57,0.46,0.59c0.28,0.02,0.52-0.21,0.54-0.52
			C6.6,35.15,6.4,34.89,6.12,34.87"/>
		<path class="st2" d="M82.81,33l-1.36-2.33l-2.53,1.43l-1.21-1.92c-0.61,0.54-1.07,1.27-1.27,2.13c-0.5,2.19,0.86,4.37,3.04,4.87
			c2.19,0.5,4.37-0.86,4.87-3.04c0.15-0.66,0.13-1.31-0.02-1.92L82.81,33z"/>
		<path class="st3" d="M79.49,36.9c-0.16,0-0.29,0.12-0.29,0.28c0,0.03-0.08,3.22-1.5,7.1c-1.31,3.57-4.05,8.48-9.71,11.62
			c-0.14,0.08-0.19,0.25-0.11,0.39c0.03,0.05,0.06,0.08,0.1,0.11c0.09,0.05,0.2,0.06,0.29,0c5.83-3.22,8.65-8.27,9.98-11.94
			c1.45-3.97,1.52-7.13,1.52-7.27C79.77,37.03,79.65,36.9,79.49,36.9"/>
		<path class="st3" d="M84.75,40.84c-0.19-0.39-0.45-0.71-0.77-0.95c-1.19-0.91-2.93-0.52-3.7,0.77l-2.24,3.74l4.38,0.11
			c0.42,0.01,0.85-0.07,1.22-0.27C84.81,43.6,85.36,42.13,84.75,40.84"/>
		<path class="st3" d="M73.89,40.53L73.89,40.53c-0.41,0.13-0.77,0.35-1.05,0.63c-1.07,1.06-0.91,2.83,0.27,3.77l3.4,2.72l0.7-4.32
			c0.07-0.42,0.04-0.85-0.11-1.25C76.64,40.84,75.25,40.1,73.89,40.53"/>
		<path class="st4" d="M81.16,42.41c-0.49,0.26-0.97,0.54-1.45,0.84c-0.47,0.3-0.93,0.62-1.37,0.98c0.55-0.15,1.07-0.36,1.58-0.58
			c0.51-0.22,1.01-0.47,1.5-0.73c0.49-0.26,0.97-0.54,1.45-0.84c0.47-0.3,0.93-0.62,1.37-0.98c-0.55,0.15-1.07,0.36-1.58,0.58
			C82.16,41.91,81.66,42.15,81.16,42.41"/>
		<path class="st4" d="M75.51,44.1c-0.19-0.52-0.4-1.04-0.64-1.55c-0.24-0.51-0.48-1.01-0.79-1.49c0.08,0.56,0.22,1.11,0.36,1.65
			c0.15,0.54,0.33,1.07,0.52,1.59c0.19,0.52,0.4,1.04,0.64,1.55c0.24,0.51,0.48,1.01,0.79,1.49c-0.08-0.56-0.21-1.11-0.36-1.65
			C75.88,45.15,75.7,44.62,75.51,44.1"/>
		<path class="st1" d="M68.56,51.99c-5.55-2.24-9.63-0.69-12.43,4.98c-7.12-0.44-6.67,14.11-6.67,14.11
			c18.17,0.8,17.94-9.14,17.94-9.14s5.26,0.96,8.05-2.5c2.78-3.47,5.59-5.29,8.17-4.64C76.94,47.93,69.68,49.04,68.56,51.99"/>
		<path class="st0" d="M72.88,51.79c-1.9,0.4-3.51,1.45-4.79,3.11c-2.53-0.89-5.08-0.63-7.56,0.75c-4.04,2.25-7.79,7.43-11.15,15.39
			l0.16,0.07c3.34-7.92,7.07-13.07,11.07-15.31c2.45-1.37,4.97-1.61,7.47-0.72l0.06,0.02l0.04-0.05c1.26-1.66,2.85-2.7,4.73-3.1
			c1.5-0.32,3.19-0.23,5.02,0.27c3.13,0.85,5.61,2.61,5.63,2.63l0.1-0.14c-0.02-0.02-2.53-1.8-5.68-2.66
			C76.13,51.56,74.41,51.46,72.88,51.79"/>
		<path class="st0" d="M74.52,52.85c-1.57-0.53-2.9-0.66-2.91-0.67l-0.02,0.18c0.01,0,1.32,0.14,2.88,0.66
			c1.43,0.48,3.36,1.39,4.46,2.99l0.15-0.1C77.94,54.26,75.97,53.34,74.52,52.85"/>
		<path class="st0" d="M57.12,61.04c-1.96,0.92-3.73,2.53-5.26,4.78l0.15,0.1c1.51-2.22,3.25-3.81,5.18-4.72
			c1.54-0.73,3.21-1.02,4.96-0.89c2.98,0.24,5.19,1.68,5.21,1.7l0.1-0.15c-0.02-0.01-2.26-1.48-5.28-1.72
			C60.39,60,58.69,60.3,57.12,61.04"/>
		<path class="st0" d="M70.13,56.86c-1.38-0.66-2.92-1.09-4.56-1.3c-2.8-0.36-4.97,0.08-4.99,0.08l0.04,0.17
			c0.02,0,2.17-0.43,4.94-0.08c1.62,0.21,3.14,0.64,4.51,1.29c1.71,0.81,3.18,1.95,4.39,3.4l0.14-0.11
			C73.36,58.84,71.86,57.68,70.13,56.86"/>
		<path class="st1" d="M36.5,62.91c0.61-6.3-2.03-9.77-7.93-10.8c0.61-3.1-4.97-7.87-14.27-5.57c2.54,0.81,3.96,3.84,4.49,8.25
			c0.53,4.41,5.51,6.38,5.51,6.38s-5.44,8.33,10.41,17.24C34.72,78.41,42.78,66.29,36.5,62.91"/>
		<path class="st0" d="M27.44,54.84c-0.21-2.09-1.03-3.83-2.43-5.17c-1.13-1.08-2.64-1.91-4.48-2.47c-3.13-0.94-6.2-0.75-6.23-0.74
			l0.01,0.18c0.03,0,3.07-0.19,6.17,0.74c1.82,0.54,3.3,1.36,4.41,2.43c1.38,1.33,2.18,3.05,2.38,5.13l0.01,0.06L27.34,55
			c2.6,0.56,4.61,2.1,5.97,4.55c2.22,4.01,2.66,10.35,1.32,18.84l0.17,0.03c1.35-8.53,0.9-14.91-1.34-18.96
			C32.09,56.98,30.06,55.43,27.44,54.84"/>
		<path class="st0" d="M17.58,49.9l0.07,0.16c1.78-0.79,3.9-0.54,5.37-0.19c1.59,0.38,2.78,0.95,2.79,0.96l0.08-0.16
			c-0.01-0.01-1.21-0.59-2.82-0.97C21.57,49.35,19.41,49.09,17.58,49.9"/>
		<path class="st0" d="M29.7,62.41c-2.7-1.39-5.37-1.33-5.4-1.33l0.01,0.18c0.03,0,2.66-0.06,5.32,1.31
			c1.56,0.8,2.82,1.94,3.74,3.37c1.16,1.79,1.8,4.06,1.91,6.74l0.18-0.01c-0.11-2.72-0.76-5.01-1.94-6.83
			C32.57,64.38,31.29,63.23,29.7,62.41"/>
		<path class="st0" d="M24.67,55.42c-1.9-0.22-3.79-0.02-5.61,0.58l0.06,0.17c1.79-0.59,3.65-0.79,5.53-0.57
			c1.5,0.17,3.02,0.6,4.51,1.28c2.54,1.16,4.14,2.66,4.16,2.68l0.12-0.13c-0.02-0.02-1.63-1.53-4.2-2.71
			C27.73,56.03,26.19,55.6,24.67,55.42"/>
		<path class="st4" d="M61.63,66.52c-5.79-1.5-9.64,0.57-11.68,6.56c-7.12,0.49-4.78,14.86-4.78,14.86
			c18.12-1.56,16.6-11.4,16.6-11.4s5.34,0.27,7.65-3.53c2.31-3.8,4.85-5.97,7.5-5.66C69.41,61.41,62.36,63.45,61.63,66.52"/>
		<path class="st0" d="M65.89,65.76c-1.83,0.65-3.29,1.89-4.35,3.71c-2.63-0.55-5.12,0.03-7.39,1.73
			c-3.71,2.76-6.76,8.38-9.05,16.71l0.17,0.05c2.29-8.29,5.31-13.88,8.99-16.61c2.25-1.68,4.72-2.24,7.31-1.68l0.06,0.01l0.03-0.06
			c1.04-1.81,2.48-3.05,4.29-3.68c1.45-0.51,3.14-0.64,5.02-0.39c3.21,0.44,5.9,1.86,5.93,1.88l0.08-0.16
			c-0.03-0.01-2.74-1.46-5.98-1.9C69.08,65.11,67.36,65.24,65.89,65.76"/>
		<path class="st0" d="M67.65,66.6c-1.63-0.32-2.96-0.28-2.97-0.28l0.01,0.18c0.01,0,1.33-0.03,2.94,0.28
			c1.48,0.29,3.51,0.94,4.81,2.39l0.13-0.12C71.23,67.56,69.15,66.9,67.65,66.6"/>
		<path class="st0" d="M56.35,75.43c-1.78,0.09-3.43,0.61-4.89,1.55c-1.83,1.17-3.37,2.99-4.59,5.42l0.16,0.08
			c1.21-2.4,2.73-4.2,4.53-5.35c1.44-0.92,3.05-1.43,4.8-1.52c2.99-0.15,5.36,0.99,5.38,1.01l0.08-0.16
			C61.79,76.44,59.38,75.28,56.35,75.43"/>
		<path class="st0" d="M59.17,70.45c-0.02,0-0.03,0-0.05,0c-2.82,0.01-4.92,0.72-4.94,0.73l0.06,0.17c0.02-0.01,2.1-0.71,4.89-0.72
			c1.64,0,3.2,0.23,4.64,0.69c1.8,0.58,3.41,1.52,4.8,2.8l0.12-0.13c-1.4-1.3-3.04-2.26-4.87-2.84
			C62.38,70.68,60.81,70.45,59.17,70.45"/>
		<path class="st5" d="M14.41,49.38l-1.14,1.73l-2.29-1.35l-1.28,2.1l-1.38-0.74c-0.15,0.55-0.18,1.15-0.06,1.75
			c0.42,2.01,2.39,3.29,4.4,2.87c2.01-0.42,3.29-2.39,2.87-4.4C15.37,50.56,14.96,49.89,14.41,49.38"/>
		<path class="st3" d="M22.83,73.05c-5.12-2.96-7.54-7.5-8.67-10.79c-1.23-3.57-1.24-6.48-1.24-6.51c0-0.15-0.12-0.26-0.26-0.26
			c-0.15,0-0.26,0.12-0.26,0.26c0,0.12,0.01,3.01,1.26,6.67c1.16,3.38,3.64,8.04,8.91,11.09c0.08,0.05,0.18,0.05,0.26,0
			c0.04-0.02,0.07-0.06,0.1-0.1C23,73.29,22.96,73.12,22.83,73.05"/>
		<path class="st3" d="M8.5,58.13c-0.29,0.22-0.54,0.5-0.72,0.86c-0.58,1.17-0.11,2.53,0.95,3.13c0.34,0.19,0.72,0.27,1.11,0.27
			l4-0.02l-1.98-3.46C11.19,57.71,9.61,57.32,8.5,58.13"/>
		<path class="st3" d="M17.71,58.91L17.71,58.91c-1.24-0.42-2.52,0.24-2.97,1.36c-0.14,0.36-0.17,0.75-0.12,1.14l0.56,3.96
			l3.16-2.42c1.09-0.84,1.27-2.45,0.31-3.44C18.41,59.24,18.09,59.03,17.71,58.91"/>
		<path class="st4" d="M11.03,60.49c-0.45-0.25-0.9-0.48-1.36-0.69c-0.47-0.21-0.94-0.41-1.44-0.56c0.39,0.34,0.81,0.64,1.23,0.92
			c0.43,0.28,0.86,0.54,1.31,0.79c0.44,0.25,0.9,0.48,1.36,0.69c0.47,0.21,0.94,0.41,1.44,0.56c-0.39-0.34-0.81-0.64-1.23-0.92
			C11.91,61,11.47,60.74,11.03,60.49"/>
		<path class="st4" d="M16.17,62.13c-0.19,0.47-0.35,0.95-0.5,1.44c-0.15,0.49-0.28,0.98-0.36,1.5c0.29-0.43,0.53-0.89,0.75-1.35
			c0.22-0.46,0.42-0.93,0.61-1.4c0.18-0.47,0.35-0.96,0.5-1.44c0.15-0.49,0.28-0.98,0.36-1.5c-0.29,0.43-0.52,0.89-0.75,1.35
			C16.55,61.19,16.35,61.66,16.17,62.13"/>
		<path class="st4" d="M29.87,74.7c-5.18-3.64-9.5-3.04-13.3,1.58c-2.39-2.05-9.3,0.45-11.88,9.68c1.96-1.81,5.29-1.55,9.4,0.16
			c4.1,1.71,8.26-1.66,8.26-1.66s4.56,8.84,20.13-0.57C42.48,83.89,35.91,70.9,29.87,74.7"/>
		<path class="st0" d="M25.26,75.65c-2.79,0-5.1,1-6.88,2.96c-1.92-0.84-3.84-0.99-5.7-0.43c-1.5,0.45-2.97,1.35-4.36,2.69
			c-2.36,2.26-3.7,5.03-3.72,5.06l0.16,0.08c0.01-0.03,1.34-2.76,3.68-5.01c1.37-1.31,2.81-2.2,4.28-2.64
			c1.84-0.55,3.73-0.4,5.64,0.45l0.06,0.03l0.04-0.05c1.75-1.96,4.03-2.95,6.79-2.95c0.04,0,0.08,0,0.11,0
			c4.58,0.05,10.32,2.78,17.05,8.13l0.11-0.14c-6.76-5.38-12.53-8.12-17.16-8.17C25.34,75.65,25.3,75.65,25.26,75.65"/>
		<path class="st0" d="M11.76,79.89c-1.04,1.12-2.33,2.88-2.53,4.87l0.18,0.02c0.19-1.94,1.46-3.66,2.48-4.77
			c1.11-1.2,2.2-1.95,2.21-1.96L14,77.91C13.99,77.91,12.89,78.67,11.76,79.89"/>
		<path class="st0" d="M30.96,78.74c-1.73,0.1-3.37,0.65-4.87,1.63c-2.54,1.66-3.8,4.02-3.81,4.05l0.16,0.08
			c0.01-0.02,1.26-2.35,3.76-3.98c1.47-0.96,3.07-1.5,4.78-1.6c2.13-0.13,4.42,0.43,6.81,1.66l0.08-0.16
			C35.44,79.17,33.12,78.61,30.96,78.74"/>
		<path class="st0" d="M20.91,77.97c-1.34,0.97-2.48,2.09-3.38,3.33c-1.13,1.55-1.89,3.29-2.26,5.16l0.17,0.03
			c0.36-1.85,1.11-3.56,2.22-5.09c0.89-1.22,2.01-2.33,3.34-3.29c2.26-1.64,4.35-2.29,4.38-2.3l-0.05-0.17
			C25.31,75.66,23.2,76.32,20.91,77.97"/>
		<path class="st6" d="M70.63,14.07c-0.04,0-0.07,0-0.11,0.01c-0.31-1.59-1.72-2.79-3.4-2.79c-1.48,0-2.74,0.93-3.24,2.23
			c-0.41-0.27-0.9-0.44-1.43-0.44c-1.42,0-2.57,1.15-2.57,2.57c0,0.11,0.01,0.22,0.02,0.33H72.7
			C72.62,14.91,71.73,14.07,70.63,14.07"/>
		<path class="st3" d="M52.1,1.21H30.3c-1.1,0-2,0.89-2,2v50.2c0,1.1,0.89,2,2,2h21.8c1.1,0,2-0.89,2-2V3.21
			C54.1,2.11,53.2,1.21,52.1,1.21"/>
		<path class="st7" d="M51.55,2.03H30.85c-1.03,0-1.87,0.84-1.87,1.87v46.36c0,1.03,0.84,1.87,1.87,1.87h20.71
			c1.03,0,1.87-0.84,1.87-1.87V3.9C53.42,2.87,52.59,2.03,51.55,2.03"/>
		<path class="st6" d="M51.55,2.03H30.85c-1.03,0-1.87,0.84-1.87,1.87v0.59c0-1.03,0.84-1.87,1.87-1.87h20.71
			c1.03,0,1.87,0.84,1.87,1.87V3.9C53.42,2.87,52.59,2.03,51.55,2.03"/>
		<polygon class="st6" points="28.98,48.47 53.42,34.19 53.42,22.25 28.98,36.55 		"/>
		<path class="st8" d="M27.24,2.16v6.37c0,1.29,1.05,2.34,2.34,2.34h0c1.29,0,2.34-1.05,2.34-2.34V1H28.4
			C27.76,1,27.24,1.52,27.24,2.16"/>
		<path class="st9" d="M31.92,8.53c0,1.29,1.05,2.34,2.34,2.34c1.29,0,2.34-1.05,2.34-2.34V1h-4.68V8.53z"/>
		<path class="st8" d="M36.6,8.53c0,1.29,1.05,2.34,2.34,2.34c1.29,0,2.34-1.05,2.34-2.34V1H36.6V8.53z"/>
		<path class="st8" d="M45.95,8.53c0,1.29,1.05,2.34,2.34,2.34s2.34-1.05,2.34-2.34V1h-4.68V8.53z"/>
		<path class="st9" d="M54.13,1h-3.5v7.53c0,1.29,1.05,2.34,2.34,2.34c1.29,0,2.34-1.05,2.34-2.34V2.18C55.3,1.53,54.78,1,54.13,1"
			/>
		<path class="st9" d="M41.27,8.53c0,1.29,1.05,2.34,2.34,2.34s2.34-1.05,2.34-2.34V1h-4.68V8.53z"/>
		<path class="st3" d="M54.05,12.51H27.5c-2.02,0-3.65,1.63-3.65,3.65v12.16c0,2.02,1.63,3.65,3.65,3.65h26.54
			c2.02,0,3.65-1.63,3.65-3.65V16.16C57.7,14.14,56.06,12.51,54.05,12.51"/>
		<path class="st2" d="M53.74,12.94H27.82c-1.94,0-3.52,1.58-3.52,3.52v11.55c0,1.94,1.58,3.52,3.52,3.52h25.92
			c1.94,0,3.52-1.58,3.52-3.52V16.46C57.26,14.52,55.68,12.94,53.74,12.94"/>
		<path class="st10" d="M53.74,12.94h-6.66L24.3,24.51v3.5c0,1.94,1.58,3.52,3.52,3.52h5.36L57.26,17.7v-1.24
			C57.26,14.52,55.68,12.94,53.74,12.94"/>
		<path class="st6" d="M53.74,12.94H27.82c-1.94,0-3.52,1.58-3.52,3.52v0.81c0-1.94,1.58-3.52,3.52-3.52h25.92
			c1.94,0,3.52,1.58,3.52,3.52v-0.81C57.26,14.52,55.68,12.94,53.74,12.94"/>
		<rect x="27.01" y="15.51" class="st11" width="3.83" height="4.69"/>
		<rect x="27.01" y="15.51" class="st10" width="1.28" height="4.69"/>
		<polygon class="st10" points="28.3,15.51 28.54,15.97 31.12,15.97 30.87,15.51 		"/>
		<polygon class="st11" points="26.84,15.97 28.17,15.97 28.3,15.51 26.97,15.51 		"/>
		<rect x="29.37" y="16.65" class="st10" width="1.48" height="2.53"/>
		<path class="st6" d="M53.95,16.94H34.33c-0.44,0-0.79,0.36-0.79,0.79s0.36,0.79,0.79,0.79h19.62c0.44,0,0.79-0.36,0.79-0.79
			S54.39,16.94,53.95,16.94"/>
		<path class="st6" d="M53.74,23.96H34.12c-0.44,0-0.79,0.36-0.79,0.79s0.36,0.79,0.79,0.79h19.62c0.44,0,0.79-0.36,0.79-0.79
			S54.18,23.96,53.74,23.96"/>
		<rect x="27.01" y="23.17" class="st11" width="3.83" height="4.69"/>
		<rect x="27.01" y="23.17" class="st6" width="1.28" height="4.69"/>
		<polygon class="st6" points="28.3,23.17 28.54,23.63 31.12,23.63 30.87,23.17 		"/>
		<polygon class="st11" points="26.84,23.63 28.17,23.63 28.3,23.17 26.97,23.17 		"/>
		<rect x="29.37" y="24.31" class="st6" width="1.48" height="2.53"/>
		<path class="st6" d="M59.79,17.31c-2.15,0-3.89,1.74-3.89,3.89c0,2.15,1.74,3.89,3.89,3.89c2.15,0,3.89-1.74,3.89-3.89
			C63.68,19.06,61.94,17.31,59.79,17.31"/>
		<path class="st8" d="M59.79,17.91c-2.15,0-3.89,1.74-3.89,3.89c0,2.15,1.74,3.89,3.89,3.89c2.15,0,3.89-1.74,3.89-3.89
			C63.68,19.65,61.94,17.91,59.79,17.91"/>
		<path class="st6" d="M60.4,20.38c-0.25,0-0.48,0.13-0.61,0.32c-0.13-0.19-0.36-0.32-0.61-0.32c-0.41,0-0.74,0.33-0.74,0.74
			c0,0.12,0.03,0.24,0.09,0.35h0l0,0c0.02,0.03,0.04,0.07,0.06,0.1l1.07,1.66l1.23-1.55c0.06-0.06,0.12-0.13,0.16-0.2l0,0h0
			c0.05-0.1,0.09-0.22,0.09-0.35C61.13,20.71,60.8,20.38,60.4,20.38"/>
		<path class="st6" d="M22.36,32.71c-2.15,0-3.89,1.74-3.89,3.89c0,2.15,1.74,3.89,3.89,3.89c2.15,0,3.89-1.74,3.89-3.89
			C26.25,34.45,24.51,32.71,22.36,32.71"/>
		<path class="st8" d="M22.36,33.31c-2.15,0-3.89,1.74-3.89,3.89c0,2.15,1.74,3.89,3.89,3.89c2.15,0,3.89-1.74,3.89-3.89
			C26.25,35.05,24.51,33.31,22.36,33.31"/>
		<path class="st6" d="M22.97,35.78c-0.25,0-0.48,0.13-0.61,0.32c-0.13-0.19-0.36-0.32-0.61-0.32c-0.41,0-0.74,0.33-0.74,0.74
			c0,0.12,0.03,0.24,0.09,0.35h0l0,0c0.02,0.03,0.04,0.07,0.06,0.1l1.07,1.66l1.23-1.55c0.06-0.06,0.12-0.13,0.16-0.2l0,0h0
			c0.05-0.1,0.09-0.22,0.09-0.35C23.7,36.11,23.37,35.78,22.97,35.78"/>
		<path class="st6" d="M19.03,15.18c-1.62,0-2.94,1.32-2.94,2.94c0,1.62,1.32,2.94,2.94,2.94c1.62,0,2.94-1.32,2.94-2.94
			C21.96,16.49,20.65,15.18,19.03,15.18"/>
		<path class="st8" d="M19.03,15.63c-1.62,0-2.94,1.32-2.94,2.94c0,1.62,1.32,2.94,2.94,2.94c1.62,0,2.94-1.32,2.94-2.94
			C21.96,16.94,20.65,15.63,19.03,15.63"/>
		<path class="st6" d="M19.49,17.49c-0.19,0-0.36,0.1-0.46,0.24c-0.1-0.15-0.27-0.24-0.46-0.24c-0.31,0-0.56,0.25-0.56,0.56
			c0,0.09,0.02,0.18,0.06,0.26h0l0,0c0.01,0.03,0.03,0.05,0.05,0.07l0.81,1.25l0.93-1.17c0.05-0.04,0.09-0.1,0.12-0.15l0,0h0
			c0.04-0.08,0.06-0.17,0.06-0.26C20.04,17.74,19.79,17.49,19.49,17.49"/>
		<path class="st3" d="M66.95,28.68c-1.59-0.88-2.48,1.18-3.34-0.16c-0.87-1.34-2.38-2.01-4.43-1.02c-2.06,0.99-2.64-0.3-2.64-0.3
			s-3.29,5.82-2.69,6.55c0.6,0.72,2.28,1.86,5.03,0.69c2.75-1.16,3.59,2.4,7.43,0.88C70.15,33.79,68.54,29.56,66.95,28.68"/>
		<path class="st12" d="M65.4,33.74c-2.81-0.08-2.47-2.72-6.28-1.77c-3.8,0.95-3.95-1.98-3.95-1.98s-0.22,0.37-0.55,0.93
			c-0.6,1.31-1.04,2.53-0.79,2.83c0.6,0.72,2.28,1.86,5.03,0.69c2.75-1.16,3.59,2.4,7.43,0.88c2.25-0.9,2.63-2.72,2.23-4.26
			C68.38,32.71,67.67,33.8,65.4,33.74"/>
		<path class="st3" d="M55.12,26.44h-1.9c-1.18,0-2.14,0.96-2.14,2.14c0,1.18,0.96,2.14,2.14,2.14h1.9c1.18,0,2.14-0.96,2.14-2.14
			C57.26,27.4,56.3,26.44,55.12,26.44"/>
		<path class="st3" d="M49.12,28.88L49.12,28.88c0,1.18,0.96,2.14,2.14,2.14h1.69v-4.28h-1.69C50.08,26.73,49.12,27.69,49.12,28.88"
			/>
		<rect x="52.25" y="32.87" class="st13" width="2.63" height="5.81"/>
		<path class="st8" d="M46.05,60.95L46.05,60.95c-0.99-0.73-2.38-0.53-3.12,0.46l-1.6,2.15c-0.73,0.99-0.53,2.38,0.46,3.12
			c0.99,0.73,2.38,0.53,3.12-0.46l1.6-2.15C47.25,63.08,47.04,61.69,46.05,60.95"/>
		
			<rect x="39.6" y="80.09" transform="matrix(0.267 -0.9637 0.9637 0.267 -47.5542 102.4503)" class="st13" width="7.93" height="4.8"/>
		<path class="st8" d="M41.5,84.9c0.33-0.62,0.02-1.39-0.65-1.61l-2.71,1.5c-0.71,0.39-1.15,1.09-1.24,1.84
			c-0.08,0.7,0.49,1.31,1.2,1.29l6.49-0.15l0.82-2.96l-4.19,0.63L41.5,84.9z"/>
		<path class="st14" d="M42.35,57.41c-1.44,1.54-1.35,3.96,0.19,5.39c1.54,1.44,3.96,1.35,5.39-0.19l7.15-12.52l-4.87-0.66
			L42.35,57.41z"/>
		<path class="st15" d="M56.97,49.79h-6.28l-0.61,3.45l-0.31,1l-6.59,13.08l-4.32,14.7l7.28,2.28l4.35-14.53l2.39-4.74
			c0.63-1.25,1.43-2.5,2.42-3.5c0.89-0.9,2.02-1.58,2.64-2.72c1.07-1.96,0.06-3.9-0.33-5.87C57.6,52.95,56.97,49.79,56.97,49.79"/>
		<path class="st8" d="M48.99,39.03c-0.66,1.23-0.7,2.72-0.03,3.95c0.03,0.05,0.06,0.1,0.09,0.16l0.43,0.72v6.19l8.34,0.05l0.3-13.2
			h-7.98L48.99,39.03z"/>
		<path class="st13" d="M49,37.21l-6.27,3.62l-2.51-6.57c-0.03-0.08-0.06-0.16-0.1-0.23c0.14-0.07,0.23-0.22,0.23-0.38v-1.01
			c0-0.24-0.19-0.43-0.43-0.43s-0.43,0.19-0.43,0.43l0,0.6c-0.23-0.19-0.5-0.33-0.78-0.43c-0.01-0.03-0.02-0.06-0.04-0.09
			l-0.49-0.88c-0.12-0.21-0.38-0.29-0.59-0.17c-0.21,0.12-0.29,0.38-0.17,0.59l0.25,0.45c0,0,0,0,0,0l-0.44-0.81
			c-0.12-0.21-0.38-0.29-0.59-0.17c-0.21,0.12-0.29,0.38-0.17,0.59l0.36,0.65c-0.02,0.01-0.04,0.02-0.06,0.04l-0.36-0.65
			c-0.12-0.21-0.38-0.29-0.59-0.17c-0.21,0.12-0.29,0.38-0.17,0.59l0.44,0.8c-0.01,0.01-0.02,0.02-0.02,0.03l-0.19-0.34
			c-0.12-0.21-0.38-0.29-0.59-0.17c-0.21,0.12-0.29,0.38-0.17,0.59l0.48,0.87c-0.11,0.46-0.09,0.96,0.09,1.44l3.52,9.22
			c0.48,1.25,1.88,1.88,3.14,1.4h0c0.13-0.05,0.25-0.11,0.36-0.17c0.06-0.03,0.13-0.06,0.19-0.1l8.55-4.94
			c1.16-0.67,1.56-2.16,0.89-3.32C51.65,36.93,50.16,36.54,49,37.21"/>
		<path class="st16" d="M52.22,34.86c0,0.74,0.6,1.33,1.33,1.33c0.74,0,1.33-0.6,1.33-1.33v-1.92h-2.67V34.86z"/>
		<path class="st13" d="M55.63,30.75c-0.59,0-1.07,0.48-1.07,1.07c0,0.59,0.48,1.07,1.07,1.07c0.59,0,1.07-0.48,1.07-1.07
			C56.7,31.22,56.22,30.75,55.63,30.75"/>
		<path class="st13" d="M53.73,28.07h-2.01c-0.87,0-1.58,0.71-1.58,1.58v2.69c0,1.39,1.13,2.52,2.52,2.52s2.52-1.13,2.52-2.52v-2.83
			C55.18,28.71,54.53,28.07,53.73,28.07"/>
		<path class="st3" d="M51.32,30.39c-0.14,0-0.25,0.15-0.25,0.34c0,0.19,0.11,0.34,0.25,0.34c0.14,0,0.25-0.15,0.25-0.34
			C51.57,30.54,51.46,30.39,51.32,30.39"/>
		<path class="st3" d="M53.58,30.39c-0.14,0-0.25,0.15-0.25,0.34c0,0.19,0.11,0.34,0.25,0.34c0.14,0,0.25-0.15,0.25-0.34
			C53.82,30.54,53.71,30.39,53.58,30.39"/>
		<polygon class="st3" points="51.2,30.57 51.32,30.39 50.88,30.24 		"/>
		<polygon class="st3" points="53.39,30.57 53.65,30.41 53.13,30.24 		"/>
		<path class="st16" d="M52.19,31.55v-0.82h-0.18v0.82c0,0.22,0.09,0.43,0.24,0.58l0.02,0.02l0.12-0.12l-0.02-0.02
			C52.26,31.88,52.19,31.72,52.19,31.55"/>
		<path class="st6" d="M53.58,32.61c-0.56,0.44-1.17,0.35-1.52,0.24c-0.07-0.02-0.12,0.06-0.07,0.11l0.3,0.31
			c0.41,0.43,1.14,0.26,1.32-0.31l0.08-0.27C53.71,32.62,53.63,32.57,53.58,32.61"/>
		<path class="st3" d="M51.56,29.45h-0.33c-0.09,0-0.16,0.07-0.16,0.16c0,0.09,0.07,0.16,0.16,0.16h0.33c0.09,0,0.16-0.07,0.16-0.16
			C51.72,29.52,51.65,29.45,51.56,29.45"/>
		<path class="st3" d="M53.74,29.45h-0.33c-0.09,0-0.16,0.07-0.16,0.16c0,0.09,0.07,0.16,0.16,0.16h0.33c0.09,0,0.16-0.07,0.16-0.16
			C53.9,29.52,53.83,29.45,53.74,29.45"/>
		<rect x="50.12" y="36.02" class="st2" width="4.44" height="4.96"/>
		<path class="st5" d="M50.64,39.28c-0.5-0.25-0.81-0.76-0.81-1.31v-4.06h-1.42v4.14c0,0.51-0.27,0.99-0.71,1.26l-0.18,0.11
			c-0.33,0.2-0.53,0.55-0.53,0.94v5.73h4.26v-5.82C51.25,39.85,51.01,39.47,50.64,39.28"/>
		<rect x="48" y="33.61" width="2.17" height="1.57"/>
		<rect x="46.99" y="40.85" class="st2" width="4.26" height="3.88"/>
		<rect x="46.99" y="40.85" class="st6" width="4.26" height="0.63"/>
		<rect x="46.99" y="44.21" class="st6" width="4.26" height="0.63"/>
		<rect x="46.95" y="38.88" class="st11" width="9.19" height="11.26"/>
		<rect x="46.95" y="38.88" class="st10" width="3.08" height="11.26"/>
		<polygon class="st10" points="50.03,38.88 50.62,39.99 56.8,39.99 56.21,38.88 		"/>
		<polygon class="st11" points="46.53,39.99 49.73,39.99 50.03,38.88 46.84,38.88 		"/>
		<rect x="52.59" y="41.61" class="st10" width="3.54" height="6.08"/>
		<path class="st13" d="M59.85,37.55c-0.87-0.87-2.28-0.87-3.15,0c-0.87,0.87-0.87,2.28,0,3.15l3.08,3.08h-4.78
			c-0.3,0-0.59,0.06-0.86,0.16l-0.79-0.31c-0.21-0.08-0.44,0.02-0.52,0.23c-0.08,0.21,0.02,0.44,0.23,0.52l0.26,0.1
			c-0.18,0.18-0.33,0.4-0.44,0.63c0,0-0.01,0-0.01,0l-0.92,0.12c-0.22,0.03-0.37,0.23-0.34,0.45c0.03,0.22,0.23,0.37,0.45,0.34
			l0.6-0.08c0,0,0,0,0,0.01c-0.01,0-0.03,0-0.04,0l-0.92,0.12c-0.22,0.03-0.37,0.23-0.34,0.45c0.03,0.22,0.23,0.37,0.45,0.34
			l0.92-0.12c0,0,0.01,0,0.01,0c0.01,0.02,0.01,0.05,0.02,0.07c-0.01,0-0.01,0-0.02,0l-0.92,0.12c-0.22,0.03-0.37,0.23-0.34,0.45
			c0.03,0.22,0.23,0.37,0.45,0.34l0.92-0.12c0.09-0.01,0.18-0.06,0.24-0.12c0.03,0.04,0.05,0.08,0.08,0.11l-0.75,0.1
			c-0.22,0.03-0.37,0.23-0.34,0.45c0.03,0.22,0.23,0.37,0.45,0.34l0.92-0.12c0.14-0.02,0.26-0.11,0.31-0.24
			c0.36,0.23,0.8,0.37,1.26,0.37h9.39c2.13,0,3.34-3.08,1.85-4.56C66.25,43.95,59.85,37.55,59.85,37.55"/>
		
			<rect x="43.05" y="40.75" transform="matrix(0.9336 -0.3583 0.3583 0.9336 -12.1492 18.2378)" class="st16" width="0.18" height="2.29"/>
		
			<rect x="50.17" y="53.73" transform="matrix(0.7493 -0.6622 0.6622 0.7493 -22.9644 46.8768)" class="st6" width="0.53" height="0.09"/>
		
			<rect x="50.72" y="52.87" transform="matrix(0.2894 -0.9572 0.9572 0.2894 -14.4207 86.4002)" class="st6" width="0.53" height="0.09"/>
		
			<rect x="51.33" y="50.84" transform="matrix(0.2894 -0.9572 0.9572 0.2894 -12.0471 85.547)" class="st6" width="0.53" height="0.09"/>
		<rect x="51.05" y="50.26" class="st6" width="0.53" height="0.09"/>
		
			<rect x="51.02" y="51.86" transform="matrix(0.2894 -0.9572 0.9572 0.2894 -13.2339 85.9736)" class="st6" width="0.53" height="0.09"/>
		
			<rect x="49.83" y="51.53" transform="matrix(0.2985 -0.9544 0.9544 0.2985 -14.0777 83.9887)" class="st6" width="0.53" height="0.09"/>
		
			<rect x="49.81" y="53.31" transform="matrix(0.9297 -0.3682 0.3682 0.9297 -16.2252 22.1235)" class="st6" width="0.09" height="0.53"/>
		
			<rect x="49.51" y="52.54" transform="matrix(0.2986 -0.9544 0.9544 0.2986 -15.2674 84.3862)" class="st6" width="0.53" height="0.09"/>
		<polygon class="st6" points="50.53,50.32 50.52,50.32 50.52,50.26 50.46,50.26 50.29,50.8 50.37,50.83 		"/>
		<path class="st6" d="M56.44,53.78l0.06,0.07c0.14-0.12,0.26-0.26,0.34-0.42l-0.08-0.04C56.68,53.54,56.57,53.67,56.44,53.78"/>
		<path class="st6" d="M56.55,52.61l0.35,0.23c0,0.02,0,0.04,0,0.06l0.09,0.01c0-0.03,0-0.06,0-0.09v-0.02l-0.39-0.25L56.55,52.61z"
			/>
		<rect x="54.32" y="51.13" class="st6" width="0.09" height="0.53"/>
		<path class="st6" d="M54.4,53.25c0.06,0.17,0.16,0.33,0.28,0.46l0.06-0.06c-0.12-0.13-0.21-0.27-0.26-0.43L54.4,53.25z"/>
		<path class="st6" d="M55.66,54.05c-0.17,0-0.34-0.03-0.5-0.1l-0.04,0.08c0.17,0.07,0.35,0.11,0.53,0.11
			c0.12,0,0.24-0.02,0.36-0.05l-0.02-0.08C55.88,54.04,55.77,54.05,55.66,54.05"/>
		
			<rect x="54.98" y="51.29" transform="matrix(0.5473 -0.837 0.837 0.5473 -18.2383 69.3973)" class="st6" width="0.09" height="0.53"/>
		<rect x="54.32" y="52.19" class="st6" width="0.09" height="0.53"/>
		
			<rect x="55.87" y="51.87" transform="matrix(0.5473 -0.837 0.837 0.5473 -18.3223 70.3992)" class="st6" width="0.09" height="0.53"/>
		
			<rect x="48.57" y="51.2" transform="matrix(0.9111 -0.4121 0.4121 0.9111 -16.7791 24.6813)" class="st6" width="0.53" height="0.09"/>
		<path class="st6" d="M48.43,52.28c-0.03,0.04-0.07,0.08-0.1,0.12l0.06,0.06c0.04-0.04,0.08-0.08,0.11-0.13l0.32-0.42l-0.07-0.05
			L48.43,52.28z"/>
		<polygon class="st6" points="48.04,51.55 47.7,51.9 47.76,51.97 48.09,51.63 48.13,51.61 48.09,51.53 		"/>
		
			<rect x="48.99" y="51.2" transform="matrix(0.5958 -0.8032 0.8032 0.5958 -21.2501 60.2731)" class="st6" width="0.53" height="0.09"/>
		
			<rect x="46.91" y="52.46" transform="matrix(0.6973 -0.7168 0.7168 0.6973 -23.3525 49.7099)" class="st6" width="0.53" height="0.09"/>
		<path class="st6" d="M47.43,52.78l-0.02,0l0,0.09l0.02,0c0.18,0,0.35-0.03,0.51-0.1l-0.03-0.08
			C47.76,52.75,47.6,52.78,47.43,52.78"/>
		<path class="st16" d="M38.82,33.55c-0.01,0.01-0.27,0.36-0.43,0.84c-0.22,0.65-0.16,1.23,0.19,1.68l0.14-0.11
			c-0.74-0.99,0.24-2.3,0.25-2.31L38.82,33.55z"/>
		<path class="st3" d="M55.18,27.77c-0.5,0-0.91,0.41-0.91,0.91v0.39c0,0.5,0.41,0.91,0.91,0.91c0.5,0,0.91-0.41,0.91-0.91v-0.39
			C56.09,28.18,55.68,27.77,55.18,27.77"/>
		<path class="st3" d="M51.92,26.09h-0.83c-0.77,0-1.39,0.62-1.39,1.39c0,0.77,0.62,1.39,1.39,1.39h0.83c0.77,0,1.39-0.62,1.39-1.39
			C53.31,26.72,52.69,26.09,51.92,26.09"/>
		<rect x="59.79" y="43.7" class="st16" width="3.97" height="0.18"/>
		<path class="st6" d="M46.82,74.13l0.08,0.03c0.05-0.17,0.11-0.33,0.16-0.5l-0.08-0.03C46.93,73.8,46.87,73.96,46.82,74.13"/>
		<path class="st6" d="M45.65,78.2l0.09,0.02c0.04-0.17,0.09-0.34,0.13-0.51l-0.09-0.02C45.73,77.86,45.69,78.04,45.65,78.2"/>
		<path class="st6" d="M45.4,79.24l0.09,0.02c0.04-0.17,0.08-0.34,0.12-0.52l-0.09-0.02C45.48,78.89,45.44,79.07,45.4,79.24"/>
		<path class="st6" d="M45.18,80.27l0.09,0.02c0.03-0.17,0.07-0.34,0.11-0.52l-0.09-0.02C45.25,79.93,45.22,80.1,45.18,80.27"/>
		<path class="st6" d="M46.5,75.14l0.08,0.03c0.05-0.17,0.1-0.34,0.16-0.51l-0.08-0.03C46.6,74.81,46.55,74.97,46.5,75.14"/>
		<path class="st6" d="M46.2,76.16l0.08,0.02c0.05-0.17,0.1-0.34,0.15-0.51l-0.08-0.03C46.3,75.82,46.25,75.99,46.2,76.16"/>
		<path class="st6" d="M56.1,55.62c-0.02-0.18-0.05-0.35-0.08-0.53l-0.09,0.02c0.04,0.17,0.06,0.35,0.08,0.52L56.1,55.62z"/>
		<path class="st6" d="M54.83,59.54l0.07,0.06c0.11-0.14,0.22-0.28,0.32-0.43l-0.07-0.05C55.04,59.26,54.94,59.4,54.83,59.54"/>
		<path class="st6" d="M45,81.32l0.09,0.01c0.03-0.17,0.06-0.34,0.09-0.52l-0.09-0.02C45.05,80.97,45.02,81.15,45,81.32"/>
		<path class="st6" d="M56.04,56.16c0,0.02,0,0.04,0,0.06c0,0.15-0.01,0.31-0.02,0.46l0.09,0.01c0.01-0.15,0.02-0.31,0.02-0.47
			c0-0.02,0-0.04,0-0.07L56.04,56.16z"/>
		<path class="st6" d="M55.7,54.08l-0.08,0.04c0,0,0.09,0.18,0.18,0.49l0.08-0.03C55.79,54.27,55.7,54.09,55.7,54.08"/>
		<path class="st6" d="M55.42,58.67l0.08,0.04c0.09-0.16,0.16-0.32,0.23-0.48l-0.08-0.03C55.58,58.36,55.5,58.52,55.42,58.67"/>
		<path class="st6" d="M44.85,82.37l0.09,0.01c0.02-0.17,0.04-0.34,0.07-0.52l-0.09-0.01C44.89,82.02,44.87,82.2,44.85,82.37"/>
		<path class="st6" d="M44.77,83.43l0.09,0c0.01-0.17,0.02-0.34,0.03-0.53L44.8,82.9C44.79,83.08,44.78,83.26,44.77,83.43"/>
		<path class="st6" d="M55.82,57.71l0.08,0.03c0.05-0.17,0.1-0.34,0.13-0.52l-0.09-0.02C55.92,57.37,55.88,57.54,55.82,57.71"/>
		<path class="st6" d="M45.91,77.18L46,77.2c0.05-0.17,0.09-0.34,0.14-0.51l-0.08-0.02C46.01,76.84,45.96,77.01,45.91,77.18"/>
		<path class="st6" d="M51.34,63.41l0.08,0.04c0.09-0.16,0.18-0.31,0.26-0.46l-0.08-0.04C51.52,63.1,51.43,63.26,51.34,63.41"/>
		<path class="st6" d="M51.88,62.5l0.08,0.05c0.09-0.15,0.19-0.3,0.28-0.45l-0.07-0.05C52.06,62.19,51.97,62.34,51.88,62.5"/>
		<path class="st6" d="M50.84,64.34l0.08,0.04c0.08-0.16,0.17-0.32,0.25-0.47l-0.08-0.04C51,64.03,50.92,64.19,50.84,64.34"/>
		<path class="st6" d="M54.1,60.29l0.06,0.07c0.13-0.12,0.26-0.24,0.38-0.37l-0.06-0.06C54.36,60.05,54.23,60.17,54.1,60.29"/>
		<path class="st6" d="M50.36,65.29l0.08,0.04c0.08-0.16,0.16-0.32,0.24-0.47l-0.08-0.04C50.52,64.97,50.44,65.13,50.36,65.29"/>
		<path class="st6" d="M52.62,61.34L52.62,61.34l-0.01,0.01c-0.05,0.08-0.11,0.16-0.16,0.24l0.07,0.05
			c0.05-0.08,0.11-0.16,0.16-0.23c0.07-0.04,0.13-0.08,0.2-0.12l-0.05-0.08C52.76,61.26,52.69,61.31,52.62,61.34"/>
		<path class="st6" d="M53.27,60.94l0.05,0.07c0.15-0.1,0.29-0.21,0.43-0.31l-0.05-0.07C53.56,60.73,53.41,60.84,53.27,60.94"/>
		<path class="st6" d="M48.24,70.14l0.08,0.03c0.06-0.16,0.13-0.33,0.19-0.49l-0.08-0.03C48.37,69.81,48.3,69.97,48.24,70.14"/>
		<path class="st6" d="M49.9,66.24l0.08,0.04c0.07-0.16,0.15-0.32,0.23-0.48l-0.08-0.04C50.05,65.92,49.97,66.08,49.9,66.24"/>
		<path class="st6" d="M47.86,71.13l0.08,0.03c0.06-0.17,0.12-0.33,0.19-0.5l-0.08-0.03C47.99,70.8,47.92,70.96,47.86,71.13"/>
		<path class="st6" d="M47.5,72.13l0.08,0.03c0.06-0.17,0.12-0.33,0.18-0.5l-0.08-0.03C47.62,71.79,47.56,71.96,47.5,72.13"/>
		<path class="st6" d="M47.15,73.13l0.08,0.03c0.06-0.17,0.11-0.33,0.17-0.5l-0.08-0.03C47.26,72.79,47.21,72.96,47.15,73.13"/>
		<path class="st6" d="M49.46,67.21l0.08,0.04c0.07-0.16,0.14-0.32,0.22-0.48l-0.08-0.04C49.6,66.88,49.53,67.04,49.46,67.21"/>
		<path class="st6" d="M49.04,68.18l0.08,0.03c0.07-0.16,0.14-0.32,0.21-0.49l-0.08-0.04C49.17,67.85,49.1,68.02,49.04,68.18"/>
		<path class="st6" d="M48.63,69.16l0.08,0.03c0.07-0.16,0.13-0.33,0.2-0.49l-0.08-0.03C48.76,68.83,48.7,68.99,48.63,69.16"/>
		
			<rect x="54.94" y="31.63" transform="matrix(0.8879 -0.46 0.46 0.8879 -8.3732 29.0727)" class="st16" width="1.07" height="0.18"/>
	</g>
</g>
</svg>
