<?xml version="1.0" encoding="utf-8"?>
<!-- Generator: Adobe Illustrator 25.2.1, SVG Export Plug-In . SVG Version: 6.00 Build 0)  -->
<svg version="1.1" id="Layer_1" xmlns="http://www.w3.org/2000/svg" xmlns:xlink="http://www.w3.org/1999/xlink" x="0px" y="0px"
	 viewBox="0 0 100 100" style="enable-background:new 0 0 100 100;" xml:space="preserve">
<style type="text/css">
	.st0{fill:#B1D0E2;}
	.st1{fill:#FFFFFF;}
	.st2{fill:#FFCD3C;}
	.st3{fill:#FDED8B;}
	.st4{fill:#51C0B1;}
	.st5{fill:#89D0C6;}
	.st6{fill:#D82128;}
	.st7{fill:#22245B;}
</style>
<g>
	<g>
		<g>
			<g>
				<g>
					<g>
						<g>
							<g>
								<path class="st0" d="M81.09,28.4v64.36c0,3.99-3.25,7.24-7.24,7.24H25.49c-3.99,0-7.24-3.25-7.24-7.24V28.43l4.05,2.89
									l0.78,0.55l5.31-3.78l5.31,3.78l5.31-3.78l3.42,2.43l0,0l1.89,1.36l5.31-3.78l5.31,3.78l0.34-0.23l4.99-3.55l4.55,3.25
									l0.76,0.55l5.31-3.78l5.31,3.78L77,31.34L81.09,28.4z"/>
							</g>
						</g>
					</g>
				</g>
			</g>
		</g>
	</g>
	<g>
		<g>
			<g>
				<g>
					<g>
						<g>
							<g>
								<g>
									<path class="st1" d="M70.26,92.3h-41.2c-0.86,0-1.55-0.69-1.55-1.55c0-0.86,0.69-1.55,1.55-1.55h41.2
										c0.86,0,1.55,0.69,1.55,1.55C71.81,91.61,71.12,92.3,70.26,92.3z"/>
								</g>
							</g>
						</g>
					</g>
				</g>
			</g>
		</g>
	</g>
	<g>
		<g>
			<g>
				<g>
					<g>
						<g>
							<g>
								<g>
									<path class="st1" d="M70.26,83.93h-41.2c-0.86,0-1.55-0.69-1.55-1.55s0.69-1.55,1.55-1.55h41.2c0.86,0,1.55,0.69,1.55,1.55
										S71.12,83.93,70.26,83.93z"/>
								</g>
							</g>
						</g>
					</g>
				</g>
			</g>
		</g>
	</g>
	<g>
		<g>
			<g>
				<g>
					<g>
						<g>
							<g>
								<path class="st2" d="M42.42,10.07v20.45L39,28.09l-5.31,3.78l-5.31-3.78l-5.31,3.78l-0.78-0.55V10.07
									C22.28,4.53,26.8,0,32.35,0c2.77,0,5.29,1.13,7.11,2.96C41.29,4.78,42.42,7.3,42.42,10.07z"/>
							</g>
						</g>
					</g>
				</g>
			</g>
		</g>
	</g>
	<g>
		<g>
			<g>
				<g>
					<g>
						<g>
							<g>
								<g>
									<path class="st3" d="M28.24,13.59h8.22c0.86,0,1.55-0.69,1.55-1.55s-0.69-1.55-1.55-1.55h-8.22
										c-0.86,0-1.55,0.69-1.55,1.55S27.4,13.59,28.24,13.59z"/>
								</g>
							</g>
						</g>
					</g>
				</g>
			</g>
		</g>
		<g>
			<g>
				<g>
					<g>
						<g>
							<g>
								<g>
									<path class="st3" d="M36.45,21.17h-8.22c-0.86,0-1.55,0.69-1.55,1.55s0.69,1.55,1.55,1.55h8.22c0.86,0,1.55-0.69,1.55-1.55
										C38,21.86,37.31,21.17,36.45,21.17z"/>
								</g>
							</g>
						</g>
					</g>
				</g>
			</g>
		</g>
	</g>
	<g>
		<g>
			<g>
				<g>
					<g>
						<g>
							<g>
								<rect x="59.63" class="st4" width="13.07" height="8.71"/>
							</g>
						</g>
					</g>
				</g>
			</g>
		</g>
	</g>
	<g>
		<g>
			<g>
				<g>
					<g>
						<g>
							<g>
								<path class="st5" d="M76.99,31.32l-0.78,0.55l-5.31-3.78l-5.31,3.78l-0.76-0.55c0.29-1.39,0.31-2.87,0.04-4.36
									c-0.17-0.9-0.44-1.76-0.8-2.56c-1.22-2.77-3.52-4.89-6.27-5.96l1.85-9.75h13.07L76.99,31.32z"/>
							</g>
						</g>
					</g>
				</g>
			</g>
		</g>
	</g>
	<g>
		<g>
			<g>
				<g>
					<g>
						<g>
							<g>
								<path class="st6" d="M64.81,31.34l-4.55-3.25l-4.99,3.55l-0.34,0.23l-5.31-3.78l-5.31,3.78l-1.89-1.36v-2.92
									c0.57-4.66,4.07-8.62,8.87-9.65c0.1-0.02,0.19-0.06,0.31-0.08l0,0c0.11-0.02,0.21-0.04,0.32-0.04
									c2.04-0.32,4.05-0.08,5.87,0.63c2.75,1.05,5.04,3.17,6.27,5.96c0.36,0.78,0.63,1.66,0.8,2.56
									C65.12,28.47,65.08,29.94,64.81,31.34z"/>
							</g>
						</g>
					</g>
				</g>
			</g>
		</g>
	</g>
	<g>
		<g>
			<g>
				<g>
					<g>
						<g>
							<g>
								<path class="st7" d="M56.88,10.17c-0.15-0.84-0.96-1.39-1.8-1.24c-2.35,0.44-4.28,2.18-5.04,4.41
									c-1.34-0.8-2.94-1.13-4.61-0.82c-0.84,0.15-1.39,0.96-1.24,1.8c0.15,0.84,0.96,1.39,1.8,1.24c1.85-0.34,3.65,0.82,4.07,2.68
									c0.17,0.71,0.8,1.2,1.51,1.2c0.11,0,0.23-0.02,0.34-0.04c0.02,0,0.02,0,0.04-0.02c0.02,0,0.02,0,0.04,0
									c0.06-0.02,0.1-0.04,0.15-0.06c0.04-0.02,0.08-0.02,0.1-0.04c0.08-0.04,0.15-0.08,0.21-0.13c0.02,0,0.02-0.02,0.04-0.02
									c0.5-0.36,0.76-1.01,0.59-1.64c0-0.02-0.4-1.55-0.23-2.77c0.29-1.39,1.39-2.48,2.79-2.75
									C56.48,11.81,57.04,11.01,56.88,10.17z"/>
							</g>
						</g>
					</g>
				</g>
			</g>
		</g>
	</g>
</g>
</svg>
