<?xml version="1.0" encoding="utf-8"?>
<!-- Generator: Adobe Illustrator 25.2.1, SVG Export Plug-In . SVG Version: 6.00 Build 0)  -->
<svg version="1.1" id="Layer_1" xmlns="http://www.w3.org/2000/svg" xmlns:xlink="http://www.w3.org/1999/xlink" x="0px" y="0px"
	 viewBox="0 0 100 100" style="enable-background:new 0 0 100 100;" xml:space="preserve">
<style type="text/css">
	.st0{fill:#EE3D4A;}
	.st1{fill:#B1D0E2;}
	.st2{fill:#B5B4B4;}
	.st3{font-family:'Montserrat-SemiBold';}
	.st4{font-size:8.7052px;}
	.st5{fill:#FFFFFF;}
	.st6{font-size:11.6633px;}
	.st7{fill:none;stroke:#EE3D4A;stroke-width:1.2042;stroke-miterlimit:10;}
</style>
<g>
	<g>
		<g>
			<g>
				<g>
					<g>
						<g>
							<g>
								<g>
									<path class="st0" d="M82.67,16.07v8.4c0.93-0.26,1.92-0.26,2.85,0v-8.51L82.67,16.07z"/>
								</g>
							</g>
						</g>
					</g>
				</g>
			</g>
		</g>
		<g>
			<g>
				<g>
					<g>
						<g>
							<g>
								<g>
									<path class="st1" d="M97.99,26.11l-1.02,23.81c-0.11,2.46-1.13,4.78-2.87,6.54L54.24,96.3c-3.85,3.85-10.08,3.85-13.91,0
										L17.56,73.51c-3.85-3.85-3.85-10.08,0-13.91L57.4,19.76c1.73-1.73,4.07-2.78,6.54-2.87l18.75-0.8v8.4
										c-0.89,0.24-1.73,0.71-2.43,1.41c-2.14,2.14-2.14,5.59,0,7.71c2.14,2.14,5.59,2.14,7.72,0c2.14-2.14,2.14-5.59,0-7.71
										c-0.69-0.69-1.53-1.17-2.43-1.41v-8.53l2.21-0.09c0.69-0.04,1.37,0.02,2.01,0.13c0.88,0.15,1.73,0.4,2.52,0.77
										C95.76,18.35,98.17,21.97,97.99,26.11z"/>
								</g>
							</g>
						</g>
					</g>
				</g>
			</g>
		</g>
	</g>
	<g>
		<g>
			<g>
				<g>
					<g>
						<g>
							<g>
								<g>
									<path class="st0" d="M92.59,7.25v8.6c0,0.35-0.13,0.66-0.33,0.89c-0.79-0.37-1.63-0.62-2.52-0.77
										c-0.02-0.04-0.02-0.07-0.02-0.13v-8.6c0-1.15-0.93-2.1-2.1-2.1c-1.15,0-2.1,0.93-2.1,2.1v22.02c0,0.79-0.64,1.42-1.42,1.42
										s-1.42-0.64-1.42-1.42V7.25c0-2.74,2.23-4.95,4.95-4.95C90.38,2.3,92.59,4.51,92.59,7.25z"/>
								</g>
							</g>
						</g>
					</g>
				</g>
			</g>
		</g>
	</g>
</g>
<text transform="matrix(1 0 0 1 6.5796 30.8579)" class="st2 st3 st4">Rs 50</text>
<text transform="matrix(1 0 0 1 39.2661 63.7441)" class="st5 st3 st6">Rs 55</text>
<path class="st7" d="M27.93,35.81H8.81C4.52,35.81,1,32.3,1,27.99V27.3c0-4.29,3.51-7.81,7.81-7.81h19.12
	c4.29,0,7.81,3.51,7.81,7.81v0.69C35.75,32.29,32.22,35.81,27.93,35.81z"/>
</svg>
